<svg id="Capa_1" data-name="Capa 1" xmlns="http://www.w3.org/2000/svg" xmlns:xlink="http://www.w3.org/1999/xlink" viewBox="0 0 453.11 1043.4"><defs><style>.cls-1{fill:none;}.cls-2{fill:#fff;}.cls-3{isolation:isolate;}.cls-4{clip-path:url(#clip-path);}</style><clipPath id="clip-path" transform="translate(-793.58 -12.36)"><polygon class="cls-1" points="994.19 654.16 747.05 505.72 1045.87 370.67 1293 519.11 994.19 654.16"/></clipPath></defs><title>chicoPerdida2</title><path class="cls-2" d="M921.21,608.2c-.4,3.16-.22,6.44-.43,9.63-1.74,1.53-3.49,3-5.27,4.51.21-3.32.44-6.83.68-10.61A37.5,37.5,0,0,1,921.21,608.2Z" transform="translate(-793.58 -12.36)"/><path class="cls-1" d="M1122.48,647.13a17.33,17.33,0,0,1,.23,2.25v.07l4.15-1c0-.64,0-1.26,0-1.89C1125.43,646.75,1124,647,1122.48,647.13Z" transform="translate(-793.58 -12.36)"/><path class="cls-2" d="M990,782.27q23.16-30,46.34-59.93c-9.93,24.16-27.48,42.54-44.59,61.26Z" transform="translate(-793.58 -12.36)"/><path class="cls-2" d="M1103.58,817.36c-9.29,6.43-18,5.75-23.35-1.84Z" transform="translate(-793.58 -12.36)"/><path class="cls-2" d="M989.69,829.12l23.46,1.24C1008.89,838.33,995.52,838.23,989.69,829.12Z" transform="translate(-793.58 -12.36)"/><polygon class="cls-2" points="126.15 599.38 128.56 587.37 133.27 593.41 130.93 599.38 126.15 599.38"/><path class="cls-2" d="M1127.69,699.53h0l0-.19Z" transform="translate(-793.58 -12.36)"/><path class="cls-2" d="M1127.69,699.34c0-.2,0,0,0,.19h0Z" transform="translate(-793.58 -12.36)"/><path class="cls-2" d="M1127.69,699.53Z" transform="translate(-793.58 -12.36)"/><polygon class="cls-2" points="334.15 687.17 334.15 687.17 334.15 687.17 334.15 687.17"/><path class="cls-2" d="M1127.69,699.54v0s0,0,0,0h0Z" transform="translate(-793.58 -12.36)"/><path class="cls-2" d="M1127.73,699.47h0v0Z" transform="translate(-793.58 -12.36)"/><polygon class="cls-2" points="334.11 687.16 334.11 687.16 334.11 687.16 334.11 687.16 334.11 687.16"/><polygon class="cls-2" points="334.11 687.16 334.11 687.18 334.11 687.16 334.11 687.16"/><path class="cls-2" d="M1127.73,699.53Z" transform="translate(-793.58 -12.36)"/><path class="cls-2" d="M1127.79,701.59c0-.68,0-1.37-.06-2.06h0C1127.73,700.57,1127.75,701.19,1127.79,701.59Z" transform="translate(-793.58 -12.36)"/><path class="cls-2" d="M1127.73,699.47h0C1127.72,699.37,1127.72,699.31,1127.73,699.47Z" transform="translate(-793.58 -12.36)"/><path class="cls-2" d="M1127.73,699.48h0v0Z" transform="translate(-793.58 -12.36)"/><path class="cls-2" d="M1127.73,699.53v-.07C1127.7,699.3,1127.68,699.16,1127.73,699.53Z" transform="translate(-793.58 -12.36)"/><path class="cls-2" d="M1127.73,699.53h0Z" transform="translate(-793.58 -12.36)"/><path class="cls-2" d="M1127.73,699.52v0Z" transform="translate(-793.58 -12.36)"/><polygon class="cls-2" points="334.15 687.17 334.15 687.17 334.15 687.17 334.15 687.17 334.15 687.17"/><path class="cls-2" d="M1127.74,699.53Z" transform="translate(-793.58 -12.36)"/><path class="cls-2" d="M1127.69,699.53h0Z" transform="translate(-793.58 -12.36)"/><path class="cls-2" d="M1127.73,699.53h0v0Z" transform="translate(-793.58 -12.36)"/><path class="cls-2" d="M1127.73,699.54c0,.22,0,.13,0,0h0Z" transform="translate(-793.58 -12.36)"/><path class="cls-2" d="M1127.73,699.53v0h0v0Z" transform="translate(-793.58 -12.36)"/><polygon class="cls-2" points="334.15 687.17 334.15 687.18 334.15 687.17 334.15 687.17"/><path class="cls-2" d="M1153.06,1002.17c-8.85-12.77-23.22-16.64-35-24.55-6-4-13.57-5.74-19.53-8.14,3.46-30.28,6.9-59.42,10.09-88.6,3.07-27.89,5.89-55.81,8.89-83.69.24-2.22.44-5.6,1.82-6.37,14.12-7.82,12.07-21.11,11.71-33.7-.55-18.52-2.8-37-3.25-55.52,0-.39,0-1,0-1.88a0,0,0,0,0,0,0c0,.43,0,.16,0-.14-2.4,2.13-.25-2.86,0-.41v0c-.35-7.28-.85-43.39-.87-49.48,0-.39,0-.78,0-1.17l-4.15,1c0,.3,0,.57,0,.87,1.34,38,2.76,76,3.85,114,.49,16.84-2.93,21-19.62,25.09a117.64,117.64,0,0,1-55.86,0c1-34.16,2-67.74,3-103.68a56.13,56.13,0,0,0-5.41-5.39c-.5,32.46-1.21,64.92-1.6,97.4-.1,9.68-4.5,15.7-13.44,18.39-25.6,7.77-51.18,8.48-76.37-1.52-16.4-6.51-21-14.49-20.5-32.07.3-10.91.05-21.82.05-32.73.87-.23,1.76-.44,2.63-.66,5.25,10.36,10.48,20.74,15.89,31.4,2-7.25,1.69-7.09-9.29-29.71-4.7-9.67-7.7-20.19-11.89-31.43,10.73,2.68,19.46,5.27,28.35,6.86,3.17.57,8.78-.28,9.72-2.22,1.42-2.94.42-7.62-.76-11.13-1-2.88-3.76-5.15-6.32-8.43,9.42-2.87,10.56-9.63,9.69-17.58-.55-5-1.18-10.06-1.65-15.09-.23-2.38-.43-4.76-.57-7.13a1,1,0,0,1,0-.25l-4.45-3.69c.5,2,.9,4.08,1.22,6.13.11.68.2,1.35.29,2a198.17,198.17,0,0,1,1.29,22c0,2.57-2.61,5.2-4,7.81-1.9-2.26-4.82-4.26-5.43-6.81-1.06-4.51-.47-9.37-1-14a30.75,30.75,0,0,0-3.48-11.78c-.23,16.7-3.17,33.92,9.74,48,1.72,1.88,1.4,5.64,2,8.51-2.85-.62-7-.28-8.3-2.06a142.07,142.07,0,0,1-12.4-19.9c-1.81-3.46-2.09-7.7-3.07-11.58L942,670c3.23,10,6.44,20,9.43,29.36-5.28-.48-7.85-2.4-11.17-11.2-2.24-5.89-3.66-12.11-7.35-17.75l3.84,22.14-1.94.81c-3.31-7.73-6.63-15.48-9.91-23.11v9l-2.11.59c-1.56-4.95-4.58-9.95-4.37-14.81.48-11.67,2.52-23.29,3.87-34.93a7.28,7.28,0,0,0-.41-3.24c-.49-1.37-2.22-2.88-1.91-3.87a23,23,0,0,0,.83-5.11c-1.74,1.53-3.49,3-5.27,4.51-.34,5.55-.65,10.64-.9,15.71-.94,19.14-3.92,38.79,14,53.09,1.26,1,1.5,3.8,1.56,5.78.64,21.2,1.58,42.38,1.49,63.58-.06,13,.78,24.88,12.72,32.94a5.82,5.82,0,0,1,2.5,3.42c1.45,14.65,3.37,29.29,3.86,44,.75,22.19-.49,44.49.87,66.63,1.42,23.27,4.95,46.4,7.52,69.59a17.34,17.34,0,0,1,.09,5.18c-2.62,13.46-5.94,26.82-7.94,40.37-1.83,12.27,3.83,23.13,14,27.05,18.42,7.06,37.43,8.18,56.45,2.37,8.87-2.71,12.1-8.24,9.63-17s-4.31-18.5-9.61-25.35c-14.44-18.62-15.47-37.78-10.61-60.13,4.91-22.6,5.11-46.17,7.93-69.27,2.78-22.86,6.72-45.59,9.17-68.49.83-8,3.47-11.69,11.55-11.62,1.06,8.61,3,17.07,2.94,25.49-.25,22.62-2.68,45.29-1.81,67.84.89,23.53,4.61,46.95,7,70.43.27,2.58,1.19,5.82,0,7.65-5.7,9-7.77,18.66-8.61,29.27-1.09,13.87,1.57,19,14.87,22.21s26.73,6.54,40.11,9.84c17.93,4.43,35.79,5,52.93-2.79C1159.16,1024.66,1160.37,1012.69,1153.06,1002.17Zm-123.19,39.12c-12.33,14.08-27.92,10.55-42.13,9.63-22.65-1.47-29.37-6.51-32.46-21.47,3,2.47,5.46,4.72,8.16,6.64,11.37,8.14,19.49,8.28,30.58.67,9-6.15,16.67-6,26.16,0C1022.58,1038.34,1025.4,1039.23,1029.87,1041.29Zm-20.51-37.06c-9.18.87-18.57,1.74-28,2.61C987.1,998.59,1000.73,997.08,1009.36,1004.23Zm-28.29-4.93c6.21-7.59,16.62-8.89,23.95-2.91Zm20.68-15.93c-10.35-5-18.16-1.88-25.29,5.09-2,2-6.88,4.29-7.77,3.5a15.4,15.4,0,0,1-4.52-8.94c-2.27-18.75-4.08-37.56-6-56.34-.2-1.72-.29-3.46-.55-6.76,17.66,7.27,34.57,9.17,53.57.82C1007.89,942.47,1004.89,962.42,1001.75,983.37Zm-7.11-63.15a97.51,97.51,0,0,1-24.53-2c-14.31-2.82-14.79-3.94-15.59-20.29,19.51,9.81,38.93,13.21,58.2-.12C1013.89,914.56,1010.52,919.21,994.64,920.22Zm29.41-108.8c-3.58,25.36-7.06,50.76-11.1,76.06-1.39,8.65-9.32,11.21-16.39,12.82-12.21,2.81-24.13.45-35.09-5.39-2.3-1.22-4.42-4.84-4.68-7.56-1.07-11.12-2.66-22.44-1.67-33.47,1.58-17.51,1.46-34.66-2.82-51.72-.27-1,.16-2.24.32-3.94,26.5,9.13,33.33,9.72,71,6.33C1023.82,806.84,1024.37,809.2,1024.05,811.42Zm94.46,169.2c-4.76,5.73-8.75,10.48-13.09,15.72C1102.81,987.29,1107.37,981.79,1118.51,980.62Zm-9.42-5.48c.41.6.83,1.19,1.26,1.79-3.9,4.76-7.82,9.51-13.11,16,.18-3.73-.62-6.9.58-8.22C1101.12,981.08,1105.27,978.26,1109.09,975.14ZM1044,805.49c-.76-10.59.69-12.52,10.66-10.66,19.3,3.57,38.53,4.33,58.73-1.9-.9,10.34-1.54,19.67-2.59,29-2.32,20.49-5.16,40.94-7.11,61.46-.71,7.35-4.22,11.62-10.59,13.54-15.8,4.75-30.35,1.38-43.26-8.52a12.15,12.15,0,0,1-4-8.21c-.53-14.1-.37-28.2-.65-42.31C1044.91,827.06,1044.77,816.26,1044,805.49Zm2,86.48c18.41,11.83,37.25,17.89,58.24,3.63-1.65,20.21-.32,20.35-22.71,23-6.51.76-13.53-.87-20.06-2.49C1046.21,912.28,1044.1,908.64,1046,892Zm1.12,23.48c17.86,10.06,34.69,11.12,53,4.9-2.44,16.72-4,32.79-7.36,48.46-2.55,11.7-10.43,16.67-20.08,15.68-11.21-1.16-18.52-8.3-19.88-19.73C1051,949.05,1049.19,933.31,1047.13,915.45Zm96.62,112.3c-14.79,5.57-30.14,5.8-45.34,2.43-15.73-3.49-31.25-8-46.83-12.2-5.62-1.53-10.87-3.69-9.81-9.76,10.33,2.31,20.19,4.47,30,6.74,4.85,1.14,10.08,1.67,14.37,3.92,15.1,7.88,30.8,7.36,46.55,3.69,3.78-.87,6.84-5,10.13-7.7,2.94-2.43,5.73-5,9.15-8.09C1155.76,1019.57,1154,1023.9,1143.75,1027.75Z" transform="translate(-793.58 -12.36)"/><path class="cls-2" d="M1127.73,699.53c0,.29,0,.15,0,0Z" transform="translate(-793.58 -12.36)"/><path class="cls-2" d="M1127.73,699.49a2.79,2.79,0,0,0,0-.38c0,.13,0,.26,0,.37Z" transform="translate(-793.58 -12.36)"/><path class="cls-2" d="M1127.73,699.53c0-.37,0-.23,0-.07,0-.12,0-.22,0-.32a1.72,1.72,0,0,1,0,.2Z" transform="translate(-793.58 -12.36)"/><path class="cls-2" d="M1127.7,699.14c0,.1,0,.2,0,.32h0c0-.16,0-.1,0,0h0c0-.11,0-.24,0-.37Z" transform="translate(-793.58 -12.36)"/><path class="cls-2" d="M1127.69,699.56h0c0,.3,0,.56,0,.14A.61.61,0,0,1,1127.69,699.56Z" transform="translate(-793.58 -12.36)"/><path class="cls-2" d="M1127.69,699.54v0h0Z" transform="translate(-793.58 -12.36)"/><polygon class="cls-2" points="334.15 687.17 334.15 687.17 334.15 687.17 334.15 687.17"/><path class="cls-2" d="M1127.73,699.53s0,0,0,0a.61.61,0,0,0,0,.15c0-.05,0-.11,0-.18Z" transform="translate(-793.58 -12.36)"/><path class="cls-2" d="M1127.69,699.53h0c0-.19,0-.39,0-.19a1.72,1.72,0,0,0,0-.2c-.25-2.43-2.39,2.56,0,.43v0Z" transform="translate(-793.58 -12.36)"/><polygon class="cls-2" points="334.15 687.17 334.15 687.17 334.15 687.17 334.15 687.17"/><path class="cls-2" d="M1127.72,699.71s0,0,0,0v-.17h0C1127.73,699.6,1127.72,699.66,1127.72,699.71Z" transform="translate(-793.58 -12.36)"/><polygon class="cls-2" points="334.15 687.17 334.15 687.17 334.15 687.17 334.15 687.17"/><polygon class="cls-2" points="334.15 687.17 334.15 687.17 334.15 687.17 334.15 687.17"/><g class="cls-3"><g class="cls-4"><path class="cls-2" d="M1246.68,504.81c-.34-10.68-8.73-20.46-23.6-27.53l-51.22-24.34-.13,5L1218.16,480c13.51,6.42,21.12,15.3,21.42,25s-6.72,19.08-19.78,26.38l-146.63,82c-1.86,1.05-3.82,2-5.85,3-12.25,5.53-27.44,8.82-43.56,9.36-18.79.63-36.59-2.57-50.08-9l-151.57-72c-13.51-6.42-21.13-15.3-21.44-25s6.72-19.07,19.79-26.38l56.69-31.69a38.43,38.43,0,0,0-.59-4.94l-61.18,34.21c-14.4,8-22.13,18.35-21.79,29s8.71,20.46,23.59,27.53l151.56,72c14.88,7.07,34.45,10.58,55.14,9.89,17.75-.59,34.48-4.21,48-10.31,2.24-1,4.39-2.09,6.43-3.23l146.63-82C1239.29,525.81,1247,515.5,1246.68,504.81Z" transform="translate(-793.58 -12.36)"/></g></g><path class="cls-2" d="M1149.05,400.14l-15.27-66.08-.48-2.05v0l-11.72-50.75-.7-3-15.64-67.78-.3-1.29-15.15-65.49-17-73.81-11.08-48-.15-.59-.35-.46c-1.4-1.86-16-17.62-92.2-.92l-1.58.35-9.81,51.5L943.72,144.5l-12.83,67.35-.18.88-13,68-.38,1.93-9.89,52.06-.32,1.7-12.1,63.42-.6,3.19-25,131,.9,1c1.05,1.17,26.49,28.87,77,41a200.23,200.23,0,0,0,47.12,5.41c45.48,0,106.07-14,180.38-61.64l1.59-1ZM948.81,571c-44-10.52-69-33.71-73.95-38.69l24.28-127.5.55-2.9L912,337.49l.29-1.51L922.13,284l.33-1.72,13.13-68.86.14-.74,12.77-67.09,14-73.33,9-47.47c66.16-14.26,83.16-2.87,85.53-.86l10.73,46.49L1085,144.87,1100,210l.27,1.18,15.87,68.7.64,2.77L1128.48,333l.44,1.91,14.47,62.69,1,4.26,26.45,114.41C1069.21,581,994.06,581.78,948.81,571Z" transform="translate(-793.58 -12.36)"/><path class="cls-2" d="M907.16,336.42c1.59.38,3.19.73,4.8,1.07,80.18,17,171.73,5.35,217-2.56,1.68-.3,3.3-.58,4.86-.87l15.27,66.08c-1.56.6-3.14,1.17-4.68,1.74-109.34,40-198.85,20-245.23,2.91-1.62-.59-3.18-1.17-4.68-1.76Z" transform="translate(-793.58 -12.36)"/><path class="cls-2" d="M917.37,282.66q2.32.72,4.76,1.38c45,12.77,113.38,21.8,194.69-1.4l4.76-1.4-.7-3-15.64-67.78-4.93.69c-43.41,6-105.56,10.79-164.72,2.29-1.63-.23-3.24-.48-4.88-.73Z" transform="translate(-793.58 -12.36)"/><path class="cls-2" d="M1093.17,154.34c-1.66.43-3.32.8-5,1.17-55.88,12.58-104.37,8.92-141.3.76-1.67-.35-3.33-.74-5-1.13l14.34-72.69c1.7.18,3.41.34,5.1.49,38.46,3.46,76.92,1.58,109-1.84,1.73-.18,3.42-.37,5.12-.57Z" transform="translate(-793.58 -12.36)"/></svg>