<svg id="Capa_1" data-name="Capa 1" xmlns="http://www.w3.org/2000/svg" viewBox="0 0 225.97 1052.19"><defs><style>.cls-1{fill:#fff;}</style></defs><title>chico carta</title><path class="cls-1" d="M1005.5,635.5h0Z" transform="translate(-846.15 -18.81)"/><path class="cls-1" d="M1015,635.5l.31.08,0-.08Z" transform="translate(-846.15 -18.81)"/><path class="cls-1" d="M1070.58,263.81a7.32,7.32,0,0,1,0-2.28c-6.61-2.16-12-5.44-17.33-8.89-5.61-3.64-12-6.31-15.19-11-6.29-2.07-11.45-3.78-15.12-5-4.3-6.71-6.25-12.94-8-18.91-3.85,2.5-7.76,4.19-10.48,7-3.16,3.28-8.17,1.57-10.92,5.05-5.1-.57-9.3,3-14.51,3-3.09,0-6.39,2-9.75,2.46s-6.35-.35-9.76,1.08c-3.09,1.29-7.19-.07-10.75.35-4.75.56-9.12-1.71-13.74-1.4-7.09.48-13.58-1.77-20.27-4.19-.73.66-1.52,1.41-2.16,2v19.57c-1.38,1-2.83,1.95-4.21,3-2.92,2.26-6.5,4.1-8.5,7a16.85,16.85,0,0,1-8.06,6.75H876.51c-2,1.45-2.77,3.15-1.65,4.84,1.69,2.54,3.36,5.52,5.84,6.94,2,1.14,2.78,3.27,4.95,4.11,1.94.76,3.53,2.45,5.25,3.74a41.82,41.82,0,0,1,5.63,4.39c1.85,2,4.21,3,6.34,4.43a85.22,85.22,0,0,0,16.26,8.48c2.79,0,7-.81,10.79.24s7.05.28,10.53.79c2-3,5.33-.56,8-2.1,2.23-1.28,5.68-.35,8.55-.65,4.9-.54,9.91-.78,14.48-2.77,3.39-1.47,7.26-.61,10.48-2.61a13.23,13.23,0,0,1,4.84-1.55c5.4-1,10.71-2.51,16-4a34.75,34.75,0,0,0,7.67-2.78c3.32-1.87,7.34-.63,10.47-2.68,2.59-1.69,5.65-.64,8.18-1.61a37.7,37.7,0,0,1,8.5-2.54c3.09-.43,6-2.29,9.09-2.5,7.46-.5,13.79-4,20.23-7.09,2.09-1,3.52-3.76,4.84-6C1072.82,266.92,1071.13,265.4,1070.58,263.81Zm-119.2,32.76c-5.2-.11-10.61.9-15.55-.23-8-1.85-16-.49-24.05-1.33l-2.56-2.56c-5.11.8-8.39-2.47-12.12-7,2.1.36,3.46.26,4.47.82A49.15,49.15,0,0,0,915,291.45c.81.18,1.51.92,2.3,1,7.49.52,15,1.09,22.49,1.36,6.26.22,12.55,0,19.13,0C956.69,296.49,954.13,296.64,951.38,296.57Zm26.83-26.2-.32-2.25c3-.27,6.22,0,8.54-2.41a2.46,2.46,0,0,1,1.81-.45c4.89.4,9.37-1.37,13.8-2.84,4.17-1.39,8.25-3.08,12.42-4.53,5.62-2,10.1-5.61,11.62-11.68h2v4.61c-2.67,2.65-5.54,5.53-8.86,8.85-.38,0-1.8-.26-2.47.31-3.73,3.19-8.55,3.62-12.7,5.51-4,1.82-8.15,2.1-12.07,3.71A24,24,0,0,1,978.21,270.37Zm56.29-5.11h-1.6c-.19.59-.39,1.17-.64,1.94-6,4-13.34,5.43-19.9,8.71-2.26,1.14-5.21,1.16-7.76,2.63-2.11,1.22-5.27.58-7.38,1.79-4.16,2.37-6.84.32-9.92-2.24,3.44-1.88,6.22-4.52,10.43-4.8,3.33-.21,6-3.4,9.69-2.79,3.06-3.1,7.79-2,11.13-4.34s7.61-3,10.42-6.19c.41-.46,1.71-.17,3-.25.17-.6.39-1.37.6-2.13l3.88-1.2c1.31,1.29,2.58,2.53,3.45,3.4Z" transform="translate(-846.15 -18.81)"/><path class="cls-1" d="M998.44,171.28c-1.79.79-.06,3.88-3.14,4.3-1.28.18-1.6,3.5-4.22,2.54-5.25,5.3-12.74,5.32-19.12,7.93-2.74,1.1-5.87.4-8.93,1.31a74.53,74.53,0,0,1-11.54,2c-3.91.49-7.79,1.2-11.71,1-3.68-.19-7.33-1.14-11-1.22a24.53,24.53,0,0,1-10.45-2.75c-.7-.36-1.7-.06-3-.06V144.75l2-2c3.18-.22,6.06,1.81,9.5,1.51,3.15-.27,6.4,1,9.61,1.12,2.1.08,4.21.57,6.49-.69,1.42-.78,4,.8,6,.7,3.22-.15,6.65-.24,9.57-1.41,4.35-1.75,9.51-.6,13.31-3.95,4.81,0,7.94-3.78,12.78-5.15.4.88,1.38,2.11,1.43,3.38.16,4,3.76,6.85,3.15,11C992.92,156.25,995.1,164,998.44,171.28Z" transform="translate(-846.15 -18.81)"/><path class="cls-1" d="M969.63,89.1c-8.83,3.66-17.53,8.09-27.76,7.3-.72.82-1.48,1.65-2.13,2.37-6.84,1.45-13.26-.53-19.86-1.21l-1.8-1.8V60.39c2.55-5.77,1-11.84,1.31-17.78.13-3.06,2.08-5.67,1.51-9-.48-2.85-.1-5.84-.1-8.76,5.76-5.17,12.53-6.58,19.88-5.94l2.13,2.23c-.4.84-.5,1.47-.79,1.56a32,32,0,0,0-6,2.43c4.33.39,8-1.54,11.74-3.43,1.94,10.41,7.06,19.91,8.76,30.72l1.84,1.82c1.27,4.63,2.28,9,3.68,13.15,1,2.82,2.11,5.48,2.5,8.53.35,2.84,3,5,2.75,8.39C967.14,85.79,968.68,87.33,969.63,89.1Z" transform="translate(-846.15 -18.81)"/><path class="cls-1" d="M1071.26,491.3a10.35,10.35,0,0,0-1.33-4.19c-2.55-4.56-2.82-9.46-2.74-14.54.15-9.75,0-19.49.1-29.24,0-1.89-.1-3.72.83-5.77s0-5.06-.26-7.65c-.1-1.06-.5-2.08-.6-3.15-.28-3,.21-6-1.16-9.06a7.51,7.51,0,0,1,.58-7.08c.57-.82.3-2.44,0-3.61-1.11-5-2.64-9.85-3.47-14.85-.64-3.85-.34-7.77-1.15-11.73-.65-3.31-.87-7.08-1.94-10.17-1.13-3.27-1.2-6.66-2.2-9.93-1.52-5.05-2.57-10.29-5.21-14.86s-3.54-9.82-7-14.2c-4-5.17-6.35-11.62-11.14-16.44a13.84,13.84,0,0,1-3.78-6.52,8.82,8.82,0,0,0-3.93-6.21h-7.6c-2.05,1.06-3.49,2.33-5.06,2.53-5.17.67-9.5,3.38-14.2,5.2-7.28,2.83-13.34,8-20.93,10.25-7.14,2.1-13.78,6.13-21.65,4.89-2.24-3.06-2.43-4.64-.94-9.92-4.83,3.21-8.82,6.54-10.4,11.76-1.26,4.19-3.31,7.25-7.31,9.31-2.65,1.37-5.54,3.21-7.08,5.63a44,44,0,0,0-5.85,13.14c-.63,2.63-1.17,5.46-1.62,8.22-.42,2.53-.91,5.07-1.35,7.6-.47,2.76-.26,5.89-1.52,8.19-1.77,3.19,0,7.07-2.56,9.84-.29,5.53-3.1,10.91-.15,16.64,1,1.9.42,4.55,1.25,6.93.63,1.79-.8,4.46-1.69,6.6-2.58,6.23-5.24,12.43-6.22,19.18-2.83,2.29,0,6.14-2.39,8.54-1.24,8.72-5,17-4.47,26.06.07,1.23-.61,2.47-.8,3.72-1,6.57-4.81,12.7-2.59,21.06l7.53,8.29c.67,10-4.3,19-5.66,30l-1,6.14V565l-4.31,15.18,4.31,9-1.56,9-3.53,9.31,3.53,8.29-5.22,6.9-1.85,5.17,1.85,7.65a10,10,0,0,1-.83,7.61,29.74,29.74,0,0,0-2.75,10.39c-.62,7.27-.09,14.55-1.23,21.91-1.41,9,0,18.16-1.35,27.34-1.57,10.77-.18,21.78-1.32,32.78-1.68,16.25,0,32.68-1.31,49.1-1,12.83-1.61,26,.9,38.9.91,4.69-.27,9.63,1.37,14.43,1,3-.15,6.33,1.23,9.69,1.24,3,.12,6.82,1.46,10.3.87,2.28.27,5,1.32,7.62,1,2.46.15,5.44,1.4,8.28,1.17,2.66,0,5.82,1.21,9,1.08,2.79,1.14,6.35,1.5,9.56a46,46,0,0,0,3.8,12.77c.61,1.48,1.29,3,2,4.4h-.79c1.83,3.71,3.51,7.52,5.31,11.31a10.8,10.8,0,0,0-1.37,10.29c1,2.91.86,5.59,1,8.38.18,2.94,0,5.9,0,8.85a15.13,15.13,0,0,0,10.32,13.81c4.93,1.48,9.8,3.32,15.12,2.65a12.93,12.93,0,0,1,1.74,3c1,3.9,1.86,7.87,2.77,11.79.43,1.86,1,3.69,1.33,5.56.46,3.22.75,6.44,1.16,10.19l-2.91,4.37c2.46.89,4.43,1.63,7,2.57l4.33,4.14v6.83c.66.67,1.32,1.32,2.19,2.19h7.06l-.79,1,2.75,2.75c-.45,0-1.51.18-2.69.32-1.21,5.3-7.16,6.26-9.41,10.9h0a2,2,0,0,0-.18.36,53.49,53.49,0,0,0,5.92-3.49,39.07,39.07,0,0,0,4.85-4.78c1.51-1.63,3.86-2.24,4.9-4.64.41-1,2.54-1.18,4-1.79-.37-3.23,3.73-3.14,4.93-5.69.6-1.27,3.76-1.34,6.08-2.05.78,2.39-.81,5.77,3,7,2.11-.64,4.49-1.36,6.74-2,.64-5.41-4.15-5-6.4-6.66l3.32-4.13c8.48,6.17,17.09,11.52,22.45,20.72,3.31.63,6.66,1.24,8.86,1.65l7-3.2c.14,1.7.22,2.78.32,3.85,2.94,0,3.84,4.74,6.82,2.59l10.76-10.77c-2-3.82-.94-9.55-5.24-13.46l-2.45,1.78c-.28-.83-.57-1.62-.76-2.13-1.91-.77-3.63-1.48-4.65-1.88-2.84-11.66-1.57-22.63-1.91-33.79,3.4-1,4.4-4.4,6.85-6.38,0-3.2-.74-6.62.2-9.48s.86-5.78,2.3-8.59c1.1-2.14.22-5.28.22-7.84l-2.72-2.72v-5.2c0-6.18.31-12.38,0-18.53h-.06c.37-4.33,1-8.64,1-13q.15-66.69.06-133.39c0-1.81-.75-4.25.15-5.31,2.11-2.55.75-5.2,1.2-7.73.49-2.75,1.29-5.52,1.32-8.28.12-15.65.08-31.31,0-47a12.56,12.56,0,0,0-.84-5.08c-1.88-4.56.65-14.58,4-18.32a27.49,27.49,0,0,0,7.41-17.25c.2-6.18,1.32-12.27,1.66-18.42v-19l-4.22-7.24v-6.91l-7.26-3.1-1.48-5c6.85-1.75,9.76-8.18,12-15.31,1-2-.23-4.4,1.47-6.81a7,7,0,0,0,.07-6.5c-1.66-2.43-1-4.71-1.12-7-.18-3.18,0-6.35,0-9.25,4.26-6.57,4.3-13.75,4-20.69,1.55-1.54,2.85-2.8,4.13-4.08V520.3c5-6.13,10.1-12.36,15-18.33C1071.33,498.08,1071.45,494.68,1071.26,491.3ZM986.17,990.4c-1.2,3.69-2.1,6.48-3.13,9.66h-2.85c-3-12.11-5.45-24.64-7.85-37.8,5.16,0,9.19,2.29,13.78,2.94.59,4.63,1.62,8.94,1.6,13.26S986.63,987.09,986.17,990.4Zm29.93-331.19a16.24,16.24,0,0,1-1.63,6.13c-1.26,3.08-.82,6-1.1,8.44-.83,1.62-1.42,2.75-1.91,3.7h-3.29c-.06-.2-.1-.42-.15-.62.62-.25,1.26-.48,2.2-.83.44-3.67.93-7.65,1.47-12.2-1.71.68-3.17,1.27-4.68,1.86-.64,5.65-1.29,11.28-2,17.06L999,686.94l-2-1.73,4.15-2.38a20.93,20.93,0,0,0,0-3.37c-.59-3.49-1-6.37.11-8.36,1.67-3.13,1.18-6.28,1.29-10.4-5.78,8.52-6,17.49-7.16,26.35a16.13,16.13,0,0,1-11.68,2.78c2.23-2.55,2.23-2.55,6.55-3.08-.42-.54-.79-1-1.17-1.47a1.09,1.09,0,0,1,.18-.42c.62-.65,1.28-1.29,1.92-1.93.57-2.45,1.15-4.9,1.83-7.82l-3.51,1.62-1.07-3-1,.72v-6.1c-2.64,1.41-.65,3.54-1.23,5.17-.62,1.8-.92,3.69-1.4,5.54-.43,1.64-.88,3.26-1.37,4.87-.55,1.82-1.16,3.61-1.8,5.61l-3.1,1.57c-1.24-1.31-3.56-1.74-4.16-4.07-.57-2.18.1-4,.63-6.1.95-3.84.27-8.07.27-12.26-2.15-1.18-2.22-3.48-3.13-5.4-1-2.15-1.11-3.29.17-5.3.81-1.31,0-3.53.29-5.3s1.34-3.29,1.22-4.87c-.33-4.5,1.83-8.29,3.1-12.31l18.4-2.41a18.43,18.43,0,0,0,5.18,1c2.95,0,5.91-.16,8.83.05a37.18,37.18,0,0,1,5.71,1.31h.35c.12-.27.23-.54.35-.82l.13.82h-.48l0,.08-.31-.08h-.29c0,1.78-.14,3.53,0,5.24.36,3.68,1,7.33,1.29,11C1016.25,654.22,1016.06,656.72,1016.1,659.21Z" transform="translate(-846.15 -18.81)"/><polygon class="cls-1" points="102.87 513.26 102.68 513.26 102.68 513.25 102.87 513.26"/><path class="cls-1" d="M1015.37,635.5l0,.08-.31-.08Z" transform="translate(-846.15 -18.81)"/><path class="cls-1" d="M1042.38,1045.64c-1,3.41-1.92,6.64-2.85,9.85-2.45,1.54-5.14,1.81-8,2.15-4.6.55-9.08,2.06-13.63,3.15-4.95,1.18-9.85,2.87-14.88,3.36-5.2.5-9.87,2.81-15,3.42-3.8.46-7.55,1.54-11.34,2.13a35.23,35.23,0,0,1-5.44,0c-6.12,0-12.25-.18-18.37,0-5.94.22-11.87,1.25-17.81,1.2s-11.77-1.7-17.82-1.39c-1.66.08-3.4-1.51-5-2.29-.79-2.71-1.51-5.14-2.39-8.15-1.89-.46-4.53-2-6.72-1.51-11.37,2.53-22.8.6-34.18,1.14-5.05.25-10.18.64-16-2-3.92-3.68-5.73-9.32-6.83-16.61,1.61,1.12,2.63,1.43,2.78,2,.87,3.14,3.54,4.22,6.08,5.49s5.34,0,8.29,1.22a12.6,12.6,0,0,0,10.36-.38,3.25,3.25,0,0,1,1.81-.5c3.81.51,7.35-1,11-1.34,3.84-.3,7.72.11,11.58-.13a34.2,34.2,0,0,0,7.52-1.49c.92-.27,1.54-1.44,2.4-2.3-3.83-4.56-7.34-8.78-11.16-13.34.77-.54,1.67-1.25,2.64-1.85s1.85-1,2.87-1.52c6,4.71,10.06,11.91,17.82,14.1.48-.49.75-.64.77-.82.14-.87.21-1.75.3-2.69-3.68-4.36-7.36-8.72-11.42-13.51l5-3.56c5.5,1.79,6.52,8.1,11.64,10.72h3.46c1.21,1.08,2.32,2.09,4.15,3.71.41-2,.64-3.2.94-4.67-3.65-3.64-7.33-7.31-11.33-11.32l3.44-4H931c2.92,3.24,6,5.9,8.08,9.22a16.09,16.09,0,0,0,8.45,7.24h0c-5.27,5.11-5.48,5.19-12.1,5.28l-9.47,6.74c-.32-.3-.64-.6-1.11-1.06-4.81,1.32-7.58,6.7-13.07,6.77v7.2c11.34,6.49,23.7,7.61,35.76,5.84,9.69-1.42,19.22.08,27.55-1.15,1.72-.89,2.71-1.43,4.13-2.17-6.16-6.54-13.29-10.47-20.6-14.81L961,1040h6.27l5.83,5.18H975l4.71,5.45s1.44-.33,2.08.24c2.1,1.88,3.91,4.07,6.19,6.53l9.37-1.77c0-.62-.08-1.23-.15-2.33l-2.08,1.54-4-6.85c-.26.73-.51,1.5-1,3-2.49-3-5.71-4.79-7-8.46H979l-5.2-5.29-3.62-.42c.07-.85.14-1.62.23-2.73l2,1.77c.26-1.34.49-2.58.8-4.16,3.15-.33,5.65.43,7,4l1.42-1.12c3,1.79,7,2.81,7,7.87.49-.91,1-1.82,1.75-3.28,2.52,2.38,4.75,4.51,7.19,6.81v5.82l.71.14a5.33,5.33,0,0,1,.56-1.81c.35-.45,1-.63,1.87-1.08l1.34,2.88h3.69c-.78-4.71-2.86-8.36-6.67-10.65-2.74-1.65-4.93-3.5-6.1-6.7h-4.3l-3.76-4.94v-1.93l-.65-.07c-.26,1.33-.53,2.68-.83,4.17-3-.4-3.9-2.14-3.64-5.19a14.42,14.42,0,0,0,2.83-.44,21.36,21.36,0,0,0,3.12-1.64c1.51,1.89,3,3.7,4.4,5.47.28-.63.72-1.54,1.28-2.71,11,4.81,18.51,13,24.24,23.11.4-.24.87-.84,1.35-.84,8.07,0,15.19-5.23,23.43-4.29C1041,1045.32,1041.6,1045.49,1042.38,1045.64Z" transform="translate(-846.15 -18.81)"/><path class="cls-1" d="M1078,585.06Z" transform="translate(-846.15 -18.81)"/><polygon class="cls-1" points="102.87 513.26 102.68 513.26 102.68 513.25 102.87 513.26"/><polygon class="cls-1" points="102.87 513.26 102.68 513.26 102.68 513.25 102.87 513.26"/></svg>