<svg id="Capa_1" data-name="Capa 1" xmlns="http://www.w3.org/2000/svg" viewBox="0 0 616.26 1021.13"><defs><style>.cls-1{fill:#fff;}.cls-2,.cls-4{fill:none;}.cls-2,.cls-3,.cls-4{stroke:#fff;stroke-width:2px;}.cls-2,.cls-3{stroke-miterlimit:10;}.cls-4{stroke-linecap:round;stroke-linejoin:round;}</style></defs><title>chicoVictoria</title><path class="cls-1" d="M819.71,605.68l1-.37.71.92c3.2.93,6.73,1.49,10.27,2.67-3.54-1.18-7.07-1.74-10.27-2.67l1.11,1.43c-2,4.16-3.44,8.68-6.06,12.38a169.92,169.92,0,0,1-12.81,15.22c-6.89,7.61-10.8,15.85-7.63,22.57-4.12,20-9.42,36.64-10.64,53.58-2,27.54-.81,55.3-1.9,82.92-.77,19.48-2.87,38.93-4.77,58.35-1.18,12-3.09,23.87-4.88,37.36-10.54,5.53-22.7,11.67-34.61,18.25-10.94,6-11.76,9.54-5.56,22.77,32.71,7.22,62.89-4.61,93.41-15,1.37-8.5,3.34-16,3.66-23.64a368.44,368.44,0,0,1,11.4-77.41c5.91-22.87,14-44,30-61.87,5.37-6,9.55-13,14.65-19.3,2.08-2.53,5.17-4.23,9.3-7.51,3.91,7.35,7.43,12.88,9.92,18.85,12.9,30.95,25.31,62.11,38.33,93,15.36,36.46,28.83,73.4,33.59,113,1.48,12.29,5.06,23.87,13.32,29.58,5.39,15.3,9.2,28,14.39,40.14a74.69,74.69,0,0,0,12.59,19.28c7,8,16.36,12.1,26.85,8.35,10.85-3.87,12-13.9,12.32-23.81.5-17.62-3.66-34.47-9.67-50.76-3.1-8.43-4.4-16.18-.34-23.27-1.59-7.52-3.42-13.93-4.24-20.46-2.33-18.62-4-37.33-6.47-55.93-1-7.24-5.52-14.6-4.59-21.37,1.62-11.77-1.3-20.15-11.29-25.83l-4.23-16.79c0,.13-.07.26-.11.39v23.9c-3.22-4.61-2.53-14.78,0-23.9V810l.11.42a2.33,2.33,0,0,1,.07-.25c.07-7.74,1.57-15.8,0-23.17-4.31-19.67.47-38.78,1.77-58.12,1-14.66,2.62-29.32,2.86-44,.22-13.15-2.32-26.42-1.4-39.49,1.51-21.62,4.82-43.12,7.13-62.56l23.68-23.41c3.65-16.25,6.2-27.64,9-39.93l16.38-5.82c1.2,6.32,2.15,11.31,3.15,16.52l61.44,55.4L1243,558.46q35.58-53.37,70.53-105.83c-3.16-42.81-6.28-85-9.42-127.52L1217.4,285c-3.56,1.74-6.56,3.11-9.46,4.65-24.76,13.11-49.41,26.43-74.3,39.28a28.44,28.44,0,0,0-12.75,13q-20.88,40.24-42.36,80.17a38,38,0,0,0-4.84,21.08c.6,10.54.15,21.14.15,32l-15.42,6c0-5.2,0-8.75,0-12.3-.09-13.27.4-26.58-.48-39.8-1-15.81-3.91-31.35-13.24-44.84-11.91-17.24-23-35.17-41.52-46.55,3-17,11.93-32.21,11.2-50.75l-25.64-4.23c-1.6-3.16-3.32-6.38-4.89-9.67q-25-52.38-50.06-104.74c-1.73-3.61-4.12-6.9-6.21-10.33-1.09,2.21-1.62,5.11-3.36,6.54-27,22.13-57.22,30.35-93.09,20.75-1.42-16.17-2.84-32.34-4.4-50,29.32,4.68,55.49,1.08,77.69-19.11l4.86,2.08L895,88.59l2.07,9.59c-11.56,18.82-42,27-70.7,18.24-.8-10.53-1.65-21.6-2.57-33.58,4.21.24,6.65.28,9.06.52C849.06,85,864.31,82.24,878,73.11c2.9-1.93,5.33-3.93,8.82-1.64-6.21-14.1-12.41-28.19-18.48-42-18.73-2-35,.07-48.19,13.35,0,3.23-.17,6.17,0,9.09,2.75,42.26,5.34,84.53,8.38,126.76,2.84,39.33,5.73,78.66,9.44,117.91,1.77,18.82-1.32,34.89-17,47.19-5.17,4.07-9.39,9.35-14.08,14.05-6.86,6.89-12.21,14.61-14.9,24.16-6.89,24.45-14.39,48.74-20.87,73.3-2.12,8.05-1.74,16.74-2.73,25.12a94.58,94.58,0,0,1-2.34,12.83c-2.32,8.84-5.62,17.48-7.29,26.43-2.21,11.94-2.94,24.15-4.94,36.14-1,6.28-3.45,12.33-6,21.11-1,5-2.64,12.74-4.52,21.79,12.23-8.12,23.83-10.68,35.79-.43L761.4,608.72c-2.11,13.93-1.65,15.26,8.26,23l11.07-12.29,39-13.78m3.84-24.19L789.26,596c11.5-28.82,22-55.21,32.54-81.6l1.75.13ZM796.4,919.73l-14.83,2.74,12.29-18.26,15-.79ZM946.24,571.8c-7.45-10.64-10.81-23.85-9.4-38.53l12.9-10.69,21-3.43L976,532.93l13.58,12.2,15.27-4.53C1000.76,561,978.69,571.35,946.24,571.8Zm57,429.91q-1.44-7.46-2.89-14.92l2.9-.54,2.34,15ZM1027,843.78c.6,5.21,1.25,11,2,17.37l-8.1-9.2Zm213.68-288.56-99.14,26.17-59.69-53.86c-.94-16.48-1.9-32.63-2.75-48.78-.43-8.1.23-16.36-1.14-24.28-2.48-14.24,1-26.47,8-38.88,13.09-23.07,25.12-46.74,37.28-70.32a30,30,0,0,1,13.49-13.82c23.91-12.31,47.58-25.12,71.35-37.7,2.9-1.54,5.91-2.89,9.44-4.61l82.84,38.38c.95,12.74,1.9,25.17,2.8,37.6,1.91,26.09,3.93,52.18,5.55,78.29.26,4.19-.1,9.3-2.27,12.62C1284.94,489,1263,521.77,1240.69,555.22Z" transform="translate(-697.27 -28.87)"/><path class="cls-2" d="M1016.48,810.77c0-.13.07-.26.11-.39l-.11-.42Z" transform="translate(-697.27 -28.87)"/><path class="cls-2" d="M743.07,633l-38.32,14.36-6.24-7.27c9.19-14.23,25.39-14.23,38.19-22.49C739.08,623.36,740.83,627.59,743.07,633Z" transform="translate(-697.27 -28.87)"/><path class="cls-3" d="M926.11,155.49l-9-20.56Z" transform="translate(-697.27 -28.87)"/><path class="cls-2" d="M1236,545.29l-91.48,24.16-55.75-50.23c-1.09-20.87-1.47-41.52-3.46-62A73,73,0,0,1,1095.67,411c11.45-19.32,21.15-39.68,31.82-59.48,1.86-3.45,4.17-7.49,7.38-9.25,25.83-14.17,51.93-27.85,78.39-41.92l77.47,35.91c1.4,18.31,2.8,35.9,4.07,53.5s2.62,35.3,3.46,53c.2,4.16-.38,9.18-2.56,12.53C1276.2,485.2,1256.27,514.87,1236,545.29Z" transform="translate(-697.27 -28.87)"/><path class="cls-4" d="M1076.55,510.4l4.75,19.28,59.58,53.55c10.33-2.52,20.63-4.88,30.84-7.56,20.69-5.44,41.26-11.33,62-16.39a21.45,21.45,0,0,0,13.11-9.13c20.54-30.45,40.62-61.21,61.08-91.71,3.8-5.67,3.58-11.71,3.16-17.76-1.65-23.62-3.6-47.23-5.46-70.84-1.1-14-2.24-28-3.45-43.17-18-8.67-36.61-17.62-55.2-26.55-7-3.35-13.83-7.19-21.1-9.77-4.8-1.7-9.62-3.72-15.54-.39-24.45,13.75-49,27.34-74.18,39.75-9.75,4.81-13.16,13-17.59,21.3-13.2,24.76-26.32,49.57-39.94,74.1-4.44,8-3,16.22-3.1,24.42-.09,7.74,1.16,15.52.79,23.23" transform="translate(-697.27 -28.87)"/><path class="cls-4" d="M806.51,916.57c-6.16,2.87-11.53,6.72-18.62,8.52-5.56,1.41-8.42-.41-12.37-1.88" transform="translate(-697.27 -28.87)"/><path class="cls-4" d="M826.43,134.11c.37,12.17.45,24.36,1.23,36.51.36,5.58,2.09,11.08,3.19,16.61" transform="translate(-697.27 -28.87)"/><path class="cls-4" d="M824.21,81c-3.18,12.78.22,25.16,2.22,37.63" transform="translate(-697.27 -28.87)"/><path class="cls-4" d="M999.08,977.44c-3.55,10.71-.4,20.42,4.43,29.88" transform="translate(-697.27 -28.87)"/><path class="cls-4" d="M918.29,136.32q3.32,8.85,6.64,17.71" transform="translate(-697.27 -28.87)"/><path class="cls-4" d="M834.73,191.66" transform="translate(-697.27 -28.87)"/></svg>