<svg id="Capa_1" data-name="Capa 1" xmlns="http://www.w3.org/2000/svg" xmlns:xlink="http://www.w3.org/1999/xlink" viewBox="0 0 1233.49 917.8"><defs><style>.cls-1{fill:none;}.cls-2{isolation:isolate;}.cls-3{clip-path:url(#clip-path);}.cls-4,.cls-6{fill:#fff;}.cls-5{clip-path:url(#clip-path-2);}.cls-6{stroke:#fff;stroke-miterlimit:10;stroke-width:0.25px;}.cls-7{clip-path:url(#clip-path-3);}</style><clipPath id="clip-path" transform="translate(-414.11 -53.44)"><polygon class="cls-1" points="1008.03 987.49 648.36 771.45 1083.24 574.9 1442.91 790.93 1008.03 987.49"/></clipPath><clipPath id="clip-path-2" transform="translate(-414.11 -53.44)"><polygon class="cls-1" points="1280.12 989.82 920.45 773.79 1355.33 577.24 1715 793.27 1280.12 989.82"/></clipPath><clipPath id="clip-path-3" transform="translate(-414.11 -53.44)"><polygon class="cls-1" points="881.2 987.49 462.22 965.36 754.13 587.82 1173.11 609.94 881.2 987.49"/></clipPath></defs><title>fondoCono</title><g class="cls-2"><g class="cls-3"><path class="cls-4" d="M1341.14,730.06l-74.53-35.42q-.1,3.66-.19,7.33L1334,734.08c19.65,9.33,30.74,22.27,31.17,36.4s-9.78,27.76-28.78,38.39L1123,928.17q-4.08,2.26-8.52,4.28c-17.83,8.06-39.94,12.84-63.4,13.63-27.34.91-53.24-3.73-72.88-13.08L933,911.54a46,46,0,0,1-5.58,4.77L971,937c21.65,10.29,50.14,15.4,80.25,14.39,25.83-.85,50.18-6.12,69.8-15,3.26-1.48,6.39-3,9.36-4.71l213.39-119.3c21-11.71,32.19-26.72,31.7-42.28S1362.79,740.35,1341.14,730.06Z" transform="translate(-414.11 -53.44)"/></g></g><path class="cls-4" d="M919.43,340.62,899.86,449.43l3,1,.31-1.57.49-2.51,19.11-100.21L923,345l.7-3.71Zm275.34,109.92c-2.71-.72-5.31-1.47-7.9-2.22l2,8.62q3.84,1.1,7.88,2.15Z" transform="translate(-414.11 -53.44)"/><path class="cls-4" d="M1131.73,641.45l2.53-.5-2.53.5c-8.88,1.7-17.62,3.11-26.22,4.29h0C1114.11,644.56,1122.85,643.15,1131.73,641.45Z" transform="translate(-414.11 -53.44)"/><path class="cls-4" d="M1159.74,635.25q-10.31,2.6-20.42,4.7l-5.06,1,5.06-1Q1149.43,637.86,1159.74,635.25Z" transform="translate(-414.11 -53.44)"/><path class="cls-4" d="M976.06,645.91h0c3.52.47,7.1.93,10.72,1.32C983.16,646.84,979.58,646.38,976.06,645.91Z" transform="translate(-414.11 -53.44)"/><polygon class="cls-4" points="561.95 592.47 567.05 598.3 561.95 592.47 561.95 592.47"/><path class="cls-4" d="M1162.37,532.09l-.1.62,1.73-.26C1163.46,532.32,1162.92,532.22,1162.37,532.09Z" transform="translate(-414.11 -53.44)"/><path class="cls-4" d="M1139.32,640l-1.57,8.23q13.1-2.64,26.6-6.1c3-.77,6-1.58,9-2.41h0c-4.77-1.45-9.32-2.95-13.63-4.42Q1149.44,637.85,1139.32,640Z" transform="translate(-414.11 -53.44)"/><path class="cls-4" d="M1164.35,642.08c3-.77,6-1.58,9-2.41h0C1170.35,640.5,1167.34,641.31,1164.35,642.08Z" transform="translate(-414.11 -53.44)"/><path class="cls-4" d="M1134.26,641l-2.53.5c-8.88,1.7-17.62,3.11-26.22,4.29a40.16,40.16,0,0,1-2.46,8.15c1.17-.15,2.33-.28,3.51-.44q5.82-.8,11.71-1.74t11.89-2.05c2.53-.47,5-1,7.59-1.48l1.57-8.23Z" transform="translate(-414.11 -53.44)"/><path class="cls-4" d="M1213.46,540.9l-1.78-8.06-3.51-15.72-5.16,1-5.32,1c-9.86,1.78-21.09,3.69-33.43,5.5l-3,.46-5.55.78c-.64.1-1.29.21-2,.28-69.6,9.63-169.37,16.47-258.93-3.28-1.83-.41-3.64-.8-5.45-1.23-.41-.08-.8-.19-1.21-.29l-4-1-1.35,7.23-1,5.23a56.51,56.51,0,0,0,6.7,6.51l.77-4.25,1-5.27,2.84.62c89.53,19.75,188.94,13.27,259.06,3.72.67-.08,1.31-.16,2-.26l5.49-.78c.88-.13,1.76-.23,2.61-.36l.1-.62c.55.13,1.09.23,1.63.36,7.85-1.16,15.26-2.32,22.15-3.51,4.54-.75,8.86-1.49,12.93-2.24l3.15-.57,1.24,5.6,1.81,8.08,16.86,75.59c-.62.23-1.22.46-1.84.67l-1.62.62q-23.09,8.74-45.26,14.92c-4.59,1.29-9.13,2.5-13.68,3.64,4.31,1.47,8.86,3,13.63,4.42,4.57-1.24,9.19-2.59,13.81-4q16.89-5.14,34.26-11.72l1.63-.62c1.26-.49,2.58-1,3.87-1.49.39-.13.75-.29,1.13-.44l3-1.22Z" transform="translate(-414.11 -53.44)"/><path class="cls-4" d="M1118.27,651.71q5.91-.94,11.89-2.05c2.53-.47,5-1,7.59-1.48-2.56.52-5.06,1-7.59,1.48Q1124.18,650.76,1118.27,651.71Z" transform="translate(-414.11 -53.44)"/><path class="cls-4" d="M1103.05,653.89c1.17-.15,2.33-.28,3.51-.44-1.18.16-2.34.29-3.51.44Z" transform="translate(-414.11 -53.44)"/><path class="cls-4" d="M919.43,340.62,899.86,449.43l3,1,.31-1.57.49-2.51,19.11-100.21L923,345l.7-3.71Z" transform="translate(-414.11 -53.44)"/><path class="cls-4" d="M1186.51,446.8l-.93-4-2.32-10.07-2.45-10.58-2-8.57-2-8.78-14.33-62-.39-1.73-.72-3.15-.13,0c-2.22.31-4.49.65-6.76,1-57.6,8.39-143.31,15.75-224.68,3.33-2-.28-3.92-.59-5.91-.93l-.23,0L923,345l-.2,1.09L903.65,446.33l-.49,2.51-.31,1.57.21.08c2.17.72,4.39,1.39,6.61,2a450.15,450.15,0,0,0,129.87,19,476.4,476.4,0,0,0,127.92-17.71l5.65-1.6c.68-.21,1.37-.39,2.07-.62l3.61-1.06c2.2-.67,4.37-1.34,6.56-2l1-.31.49-.15Zm-9.68-3.8-.28.08c-1.06.34-2.15.65-3.2,1l-4.26,1.23c-108.61,31.09-199.56,17.25-257.23-.15-1.06-.31-2.12-.65-3.17-1l17-94.69,3,.47c82.27,12.54,168.81,5.11,226.94-3.33,1.09-.18,2.12-.34,3.15-.49l15.57,71.64,2,9.42,1.86,8.49,1.21,5.58.21.88C1178.69,442.41,1177.73,442.72,1176.83,443Z" transform="translate(-414.11 -53.44)"/><polygon class="cls-4" points="774.6 393.92 772.69 394.54 772.4 393.36 771.47 389.33 769.15 379.26 766.7 368.68 764.71 360.1 762.7 351.33 748.37 289.34 747.98 287.62 747.26 284.46 750.69 284 763.93 344.87 765.87 353.75 767.83 362.76 770.18 373.58 774.6 393.92"/><path class="cls-4" d="M1192.42,440.42l-5.93-25.71-2.35-10.15-2.07-9-1.91-8.31-10.51-45.46-.43-1.88-22-95.31-17.63-76.34-4.42-19.08-2.76-12-16.13-69.81-.21-.85-.52-.67c-2-2.71-23.26-25.64-134.19-1.34L969,65l-14.28,75L934.58,245.75l-18.67,98-.25,1.29L896.79,444l-.55,2.81-14.4,75.77-.47,2.48-.13.7-.33,1.74c2,1.55,4.29,3,6.4,4.71l1.06-5.6.41-2.2.54-2.83,13.53-71.18-3-1,19.57-108.81,4.23.7,14.61-76.73,3.28-17.19,18.3-95.9,2.07-10.82L975.06,71.6c96.29-20.76,121-4.19,124.48-1.27L1115.16,138l2.61,11.28,22.43,97,4.21,18.23,17,73.39,3.43-.47L1178,398.32l1.94,8.88,2,9,2.35,10.81,4.42,20.35-1.91.62.07.33c2.59.75,5.19,1.5,7.9,2.22Z" transform="translate(-414.11 -53.44)"/><path class="cls-4" d="M1242.07,655.21l-1.89-8.14-6.76-29.27-17.71-76.65-1.86-8-2.66-11.46-.7-3v0l-13.75-59.53q-4-1.05-7.88-2.15L1203,518.07l.46,2,.65,2.79,2.14,9.22,1.86,8.08,17.06,73.93,1.42,6.2.34,1.5,5.55,24,1.88,8.18,30.72,132.85c-40.71,25.92-78.5,44.81-113.27,58.21-3.21,1.24-6.35,2.43-9.5,3.57-71.54,26-129.82,28.69-173.88,22.72-1.24,2.36-2.28,4.87-3.8,7.26a302.82,302.82,0,0,0,43.87,3.14c39.79,0,87.49-7.34,142.69-28.25,3.2-1.21,6.42-2.45,9.68-3.76,34-13.66,70.73-32.43,110.15-57.7l2.33-1.47Z" transform="translate(-414.11 -53.44)"/><path class="cls-4" d="M1129.54,168.25l-3.67-16.45-.75-2.63-.2-.77-3.49.44c-1.21.13-2.45.28-3.66.43l-3,.37c-53.1,6.06-102.64,7-147.15,2.66l-.51-.06c-2.12-.2-4.26-.41-6.38-.64l-.83-.1-2.76-.31L936.31,264.08l2,.51,1.55.39c2.25.57,4.52,1.16,6.81,1.68a406.36,406.36,0,0,0,93.72,11,423.63,423.63,0,0,0,99.87-12.11l.5-.1,3.69-.9c.9-.24,1.78-.47,2.68-.73l3.54-1Zm9.34,89.63-.46.13c-64,15.44-127.92,15.8-190.06,1.08-1-.23-2.09-.46-3.12-.72l18.18-98.69c1,.08,1.91.18,2.86.28l.52,0c45.1,4.34,95.15,3.44,148.77-2.68,1.16-.13,2.32-.26,3.51-.41l22.38,100.34Z" transform="translate(-414.11 -53.44)"/><path class="cls-4" d="M623.76,237.34l-11.39-12.52-2-1.91-.57-.56-1,.74-2,1.45c-1.06.72-2.17,1.5-3.23,2.27-.87.65-1.78,1.24-2.68,1.89-47,32.78-93.12,59.19-137,78.42l-.52.24-5.06,2.19-1.23.52-.83.33-2.76,1.16L488.3,421.23l2.09-.57,1.66-.47c.13,0,.26-.07.38-.1,2.25-.62,4.55-1.26,6.85-1.93a467,467,0,0,0,93.37-38.86,485.76,485.76,0,0,0,88-62.24l.41-.36c1-.9,2-1.78,3-2.68.67-.62,1.32-1.24,2-1.89l.18-.15,2.86-2.69Zm52,73.71-.39.36c-52.71,46.62-112.6,80-178.12,99.23-1.09.31-2.2.67-3.28,1l-30.49-95.87c.93-.44,1.88-.83,2.84-1.24l.52-.21c44.48-19.54,91.07-46.21,138.55-79.31l3.09-2.16,69.4,76.33Z" transform="translate(-414.11 -53.44)"/><path class="cls-4" d="M509.37,499.14c2.43-.29,4.83-.54,7.23-.88C598.56,488,680.16,452,743,389.78a.92.92,0,0,1,.23-.25c1.34-1.32,2.63-2.61,3.92-3.93.44-.44.86-.9,1.29-1.34.44.36.88.75,1.35,1.11,3.43,2.89,6.92,5.73,10.45,8.57-2-1.16-4-2.27-6-3.43-.2-.11-.38-.24-.59-.34-1.52,1.58-3,3.1-4.54,4.57a.16.16,0,0,1-.11.08C685.35,458.14,602.41,495,518.82,505.41c-2.43.31-4.86.6-7.26.85Zm323.08-29.53c-1.6,1.83-3.2,3.61-4.83,5.39C759.8,549.19,660.21,596.28,549.2,603.69c-2.45.16-4.9.29-7.38.41h0l2.35,7.54c.91,0,1.81-.08,2.71-.13h0c1.55-.07,3.08-.18,4.63-.28,53.8-3.59,105.09-16.19,151.35-36.74,50.32-22.35,94.64-54,130.52-92.83,1.63-1.78,3.26-3.56,4.86-5.37Z" transform="translate(-414.11 -53.44)"/><path class="cls-4" d="M566.78,684.8c2.4-.25,4.83-.51,7.23-.82,108.09-13.17,215.51-60.75,297-142.81l3.25-3.31c.83-.85,1.7-1.73,2.53-2.61l5,2.17c3.21,1.37,6.43,2.71,9.66,4.06-.39-.29-.78-.6-1.14-.88l-2.55-2v0c-1.84-1.39-3.64-2.78-5.45-4.2-.62-.49-1.24-1-1.88-1.47-2.35-1.89-4.68-3.75-7-5.63l-.23.23c-1.19,1.24-2.38,2.48-3.56,3.69-.52.57-1.06,1.11-1.61,1.65-1.11,1.14-2.22,2.28-3.4,3.44C784,617.12,678.05,663.82,571.79,676.77c-2.4.31-4.83.6-7.23.83Zm390.33-71.69c-1.57,1.81-3.2,3.62-4.85,5.42-85,93.17-209.42,153.12-347.79,163.93-2.45.18-4.9.36-7.35.52l2.32,7.51c2.45-.15,4.93-.31,7.36-.54,65.28-5.09,127.63-20.81,184.22-46C855.37,715.47,912.14,674.86,958,625.09c1.66-1.78,3.28-3.56,4.91-5.37Z" transform="translate(-414.11 -53.44)"/><g class="cls-2"><g class="cls-5"><path class="cls-4" d="M1613.24,732.4,1538.7,697c-.06,2.44-.12,4.89-.19,7.33l67.57,32.11c19.66,9.34,30.74,22.27,31.18,36.4s-9.78,27.76-28.79,38.4L1395.07,930.5c-2.71,1.52-5.56,3-8.52,4.29-17.83,8.06-39.93,12.84-63.4,13.62-27.34.92-53.24-3.73-72.88-13.08l-67.83-32.23c-2.62,1.31-5.17,2.62-7.35,3.93l68,32.32c21.64,10.29,50.14,15.4,80.24,14.39,25.84-.86,50.19-6.13,69.81-15q4.89-2.21,9.35-4.71l213.4-119.29c20.94-11.71,32.18-26.73,31.69-42.28S1634.89,742.69,1613.24,732.4Z" transform="translate(-414.11 -53.44)"/></g></g><path class="cls-4" d="M1545.45,792.88l-2.32,1.47c-108.14,69.39-196.33,89.71-262.52,89.71a295.58,295.58,0,0,1-53.93-4.83,67.06,67.06,0,0,0,9.76-6.17c67.07,10.12,168.5.34,300.75-83.9l-38.16-165-.33-1.5-1.42-6.19-21.07-91.23-.64-2.79-.47-2-16.21-70.11-.28-1.19-.93-4-23.11-100-.38-1.73-.73-3.12-17-73.42-4.21-18.23-22.43-97-2.61-11.28-15.62-67.67c-3.45-2.91-28.19-19.49-124.48,1.27L1234,143,1232,153.82l-18.31,95.9-3.27,17.2-14.62,76.75-.69,3.69-.21,1.08-10.71,56.12-2.07-9-1.91-8.31,7.59-39.86.26-1.29,18.66-98,20.17-105.79,14.27-74.94,2.3-.52c110.93-24.29,132.15-1.37,134.19,1.34l.51.67.21.86,16.14,69.8,2.6,11.26,4.8,20.86,17.4,75.3,22,95.31.44,1.88,22.77,98.64,1,4.34,17.06,73.86v0l.7,3,22.22,96.16Z" transform="translate(-414.11 -53.44)"/><path class="cls-4" d="M1480.27,519.47l-5.17.95-5.32,1c-56.43,10.22-158,23.72-255.93,11.67l-.68-.08a58.14,58.14,0,0,1,2.18,8.09l.36,0c98.07,11.54,199.11-1.91,255.47-12.1l3.15-.6,19.9,89.27-1.83.7-1.63.62c-97.76,37.07-184.32,38.22-250.18,28.09a22.4,22.4,0,0,0,1.13,8l.35.06a481.4,481.4,0,0,0,70.16,5.13c53.42,0,114.8-8.85,181.31-34.07l1.62-.62c1.27-.49,2.58-1,3.87-1.5.39-.13.75-.28,1.14-.44l3-1.21Z" transform="translate(-414.11 -53.44)"/><path class="cls-1" d="M1499,624.15c-1.29.52-2.6,1-3.87,1.5l-1.62.62c-66.51,25.22-127.89,34.07-181.31,34.07a481.4,481.4,0,0,1-70.16-5.13l.43,1.87c.21.47.42.93.67,1.44-.25-.51-.46-1-.67-1.44l30.86,133.48L1271,792c-39.42,25.27-76.15,44-110.15,57.7a257,257,0,0,0,53.2,19c65.86,15.72,175.24,14.59,323.11-79.59Z" transform="translate(-414.11 -53.44)"/><path class="cls-4" d="M1436.9,339.77l-3.44.49-.13,0c-2.22.31-4.49.65-6.76,1-57.59,8.36-143.3,15.75-224.67,3.33-1.86-.28-3.72-.59-5.58-.88l-.57-.07-4.23-.7-9.45,52.58,2.07,9,2.35,10.15,11.3-62.89c1,.16,2,.31,3,.44,82.3,12.55,168.81,5.14,227-3.33l3.15-.46,20.67,95.1.21.88c-1.06.33-2.09.64-3.1,1-104.76,31.74-193.61,21.41-252.91,5.37,1.54,2.21.63,5.64,1.2,8.34a452.22,452.22,0,0,0,114.71,14.69,477.89,477.89,0,0,0,139.25-21c2.19-.67,4.36-1.34,6.56-2l1.44-.46,1.91-.59Z" transform="translate(-414.11 -53.44)"/><path class="cls-6" d="M1401.86,171.61l-4.64-20.89-.16,0-3.61.44c-1.19.12-2.38.28-3.59.41-1,.13-2,.26-3,.36-53.1,6.07-102.64,7-147.14,2.68l-.52,0c-2.12-.2-4.26-.44-6.38-.67l-.82-.1-2.77-.31L1208.4,266.43l2,.49,1.54.38q3.38.9,6.82,1.68a405.54,405.54,0,0,0,93.71,11,424.77,424.77,0,0,0,99.88-12.08l.49-.13c1.24-.28,2.45-.59,3.69-.9l2.69-.7,3.53-1Zm9.12,88.62-.47.1c-64,15.44-127.94,15.83-190,1.11-1-.23-2.09-.49-3.12-.75L1235.51,162c1,.11,1.91.21,2.87.29l.51.05c45.1,4.36,95.16,3.46,148.78-2.69,1.18-.13,2.35-.26,3.51-.41l22.38,100.34C1412.71,259.82,1411.83,260,1411,260.23Z" transform="translate(-414.11 -53.44)"/><g class="cls-2"><g class="cls-7"><path class="cls-4" d="M1103.81,623.18c-7.72-13.5-25.18-20.34-49.12-19.27l-82.45,3.66,3.27,6.56,74.74-3.33c21.74-1,37.59,5.26,44.6,17.53s4.39,29.11-7.41,47.41L954.91,881.19q-2.53,3.91-5.52,7.78c-12,15.48-29.25,30.06-49.6,41.76-23.72,13.63-48.78,21.68-70.5,22.63l-244,10.86c-21.76,1-37.61-5.25-44.64-17.51s-4.38-29.11,7.43-47.42l51.24-79.43c-1.35-1.82-2.48-4.24-4.14-5.94l-55.29,85.73c-13,20.16-15.91,38.69-8.18,52.2s25.16,20.35,49.11,19.29l244-10.86c23.95-1.07,51.51-9.92,77.62-24.93,22.42-12.87,41.46-29,54.63-46,2.18-2.83,4.21-5.68,6-8.54l132.52-205.45C1108.65,655.22,1111.54,636.69,1103.81,623.18Z" transform="translate(-414.11 -53.44)"/></g></g><path class="cls-4" d="M536,560.94l-.75-2.45-9.29-30.1,13.94,69.42,4.54,14.66c1.19-.47,2.38-.91,3.54-1.37s2.11-.8,3.17-1.24Zm458.25,94.87-7.44-8.57-31.88-36.68-5.19-6-42.82-49.28-16.66-19.16-.93-1.08-2.06-2.38v0l-4.44-5.09-1.55-1.78L875.41,519l-33.25-38.26-2-2.32,0,0L829,465.6l-5.16-6L790.42,421.2l-2.94-3.35L759.8,386l-9.93-11.46-28.76-33.12-1.27-1.48L655.67,266.1l-72.29-83.23-47-54.08-.57-.67-.77-.34C532,126.34,502.48,116,415.89,189.51l-1.78,1.55,22.54,72.87,31.8,102.9,29.48,95.32.39,1.26,13.76,44.51,16,51.73.85,2.76,11,35.4,4.54,14.66,2.32,7.54,5,16,.75,2.43,16.16,52.22,11.59,37.54,1.39,4.52,2.81,9.11L601.14,796l2.38,7.59L638.94,918.2l1.86.7c2.14.77,53.74,19,127,.18A292.35,292.35,0,0,0,832,893.86,357.39,357.39,0,0,0,888.86,856h0q3.3-2.67,6.64-5.45c41.53-35,85.06-85.76,126.29-159.07l1.36-2.38ZM887.82,847c-2.19,1.83-4.41,3.61-6.61,5.34-42.62,33.72-82.63,50.83-115.13,59.25-63.74,16.52-111.65,3.77-121.46.75l-34.47-111.5-2.35-7.59-19-61.36-.7-2.2-.59-1.91-7.8-25.22-4.62-15-15.75-51-.36-1.19-.31-.95-5.26-17-2.33-7.54L536,560.94l-.75-2.45-9.29-30.1-7.28-23.55-2.87-9.26L505.08,461l-.28-1,0-.07-12.34-39.89L475.4,365l-17.15-55.48-14.92-48.33L422.53,194c75.33-63.48,104.94-60.44,109.35-59.48L577.42,187l10.14,11.67,21.25,24.44,41.51,47.79,9.71,11.2,26.1,30.05,28,32.19,1.16,1.35,28.5,32.81,5.13,5.91,33.67,38.75,2.71,3.12L818,463.9l5.16,5.94,11.49,13.22,1.19,1.36.69.78,32.74,37.69,5.16,6,5.14,5.91,1.6,1.84,4.36,5,2.14,2.48,10.25,11.8,2.61,3,1.55,1.78,41.66,48,5.19,6,27.16,31.27,7.64,8.75,30.44,35.05C972.78,762.71,929.21,812.74,887.82,847Z" transform="translate(-414.11 -53.44)"/></svg>