<svg id="Capa_1" data-name="Capa 1" xmlns="http://www.w3.org/2000/svg" viewBox="0 0 1552.74 532.93"><defs><style>.cls-1{fill:#19d8a2;}.cls-2{fill:#fff;}</style></defs><title>apuestaModal</title><rect class="cls-1" width="757.32" height="532.93" rx="52.72"/><path class="cls-2" d="M224.65,455.09q12.12,0,19,6.06t6.87,17a29.07,29.07,0,0,1-1.31,8.59,22.7,22.7,0,0,1-4.19,7.72,20.24,20.24,0,0,1-7.58,5.56A28.35,28.35,0,0,1,226,502.05h-10.8V528.3h-10.5V455.09Zm1.21,36.66a15.62,15.62,0,0,0,6.92-1.37,11.65,11.65,0,0,0,4.34-3.48,13.81,13.81,0,0,0,2.22-4.44,13.82,13.82,0,0,0,0-8.44,12.43,12.43,0,0,0-2.22-4.24,11.83,11.83,0,0,0-4.19-3.23,15.13,15.13,0,0,0-6.56-1.26H215.16v26.46Z" transform="translate(-93.28 -235.97)"/><path class="cls-2" d="M250.8,528.3,283,452.06h.61l32.21,76.24H303.61l-23.42-59.68,7.57-4.95L261.3,528.3Zm19.49-27.47h26.25l3.64,9.09h-33Z" transform="translate(-93.28 -235.97)"/><path class="cls-2" d="M349,455.09a32.83,32.83,0,0,1,13.63,2.68,21.41,21.41,0,0,1,9.34,7.77,22.21,22.21,0,0,1,3.39,12.57A28.76,28.76,0,0,1,374,486.7a21.88,21.88,0,0,1-4.19,7.67,20.21,20.21,0,0,1-7.67,5.5,29.7,29.7,0,0,1-11.77,2.07h-10.8V528.3h-10.5V455.09Zm1.21,36.66c3.77,0,6.68-.73,8.74-2.17a11.65,11.65,0,0,0,4.29-5.26,15.79,15.79,0,0,0,1.21-5.8,14.46,14.46,0,0,0-.71-4.29,14.29,14.29,0,0,0-2.27-4.35,11.4,11.4,0,0,0-4.19-3.33,14.85,14.85,0,0,0-6.46-1.26H339.56v26.46ZM362.48,498l19,30.29H369.15l-19.29-30.09Z" transform="translate(-93.28 -235.97)"/><path class="cls-2" d="M425.09,453Q418,472.26,411,491.59t-14.24,38.63h-9.29q7.17-19.29,14.29-38.63T415.9,453Z" transform="translate(-93.28 -235.97)"/><path class="cls-2" d="M435.49,455.09H446V528.3h-10.5Z" transform="translate(-93.28 -235.97)"/><path class="cls-2" d="M466.79,528.3V452.67h.1l38.77,55-4.54-.91,38.67-54.12H540V528.3H529.49V476.6l.61,5.35L503,520.42h-.2L475.17,482,477,477v51.3Z" transform="translate(-93.28 -235.97)"/><path class="cls-2" d="M580.69,455.09q12.12,0,19,6.06t6.87,17a29.07,29.07,0,0,1-1.31,8.59,22.55,22.55,0,0,1-4.2,7.72,20.13,20.13,0,0,1-7.57,5.56A28.35,28.35,0,0,1,582,502.05H571.2V528.3H560.69V455.09Zm1.21,36.66a15.65,15.65,0,0,0,6.92-1.37,11.73,11.73,0,0,0,4.34-3.48,13.81,13.81,0,0,0,2.22-4.44,13.82,13.82,0,0,0,0-8.44,12.43,12.43,0,0,0-2.22-4.24,11.92,11.92,0,0,0-4.19-3.23,15.15,15.15,0,0,0-6.57-1.26H571.2v26.46Z" transform="translate(-93.28 -235.97)"/><path class="cls-2" d="M606.84,528.3l32.21-76.24h.61l32.21,76.24H659.65l-23.43-59.68,7.58-4.95L617.34,528.3Zm19.49-27.47h26.25l3.64,9.09h-33Z" transform="translate(-93.28 -235.97)"/><path class="cls-2" d="M705,455.09a32.86,32.86,0,0,1,13.63,2.68,21.47,21.47,0,0,1,9.34,7.77,22.21,22.21,0,0,1,3.38,12.57A29.07,29.07,0,0,1,730,486.7a22,22,0,0,1-4.19,7.67,20.21,20.21,0,0,1-7.67,5.5,29.7,29.7,0,0,1-11.77,2.07H695.6V528.3H685.1V455.09Zm1.21,36.66c3.77,0,6.68-.73,8.74-2.17a11.65,11.65,0,0,0,4.29-5.26,16,16,0,0,0,1.21-5.8,14.46,14.46,0,0,0-.71-4.29,14.29,14.29,0,0,0-2.27-4.35,11.48,11.48,0,0,0-4.19-3.33,14.88,14.88,0,0,0-6.46-1.26H695.6v26.46ZM718.52,498l19,30.29H725.18L705.9,498.21Z" transform="translate(-93.28 -235.97)"/><rect class="cls-1" x="795.41" width="757.32" height="532.93" rx="52.72"/><path class="cls-2" d="M1142.68,522.75a49.27,49.27,0,0,1-4.89,2.67,38.85,38.85,0,0,1-7.48,2.68,34.72,34.72,0,0,1-9.34,1,39.5,39.5,0,0,1-15.34-3,34.37,34.37,0,0,1-11.57-8,35.35,35.35,0,0,1-7.32-11.71,39.25,39.25,0,0,1-2.52-14.09,41.92,41.92,0,0,1,2.67-15.2,36.3,36.3,0,0,1,7.53-12,34.2,34.2,0,0,1,11.46-7.93,36.57,36.57,0,0,1,14.49-2.83,38.15,38.15,0,0,1,12.11,1.82,43.24,43.24,0,0,1,9.19,4.14l-4.24,9.9a40.38,40.38,0,0,0-7.22-3.84,24.25,24.25,0,0,0-9.54-1.82,23.36,23.36,0,0,0-12.67,3.64,27,27,0,0,0-9.29,9.79,27.66,27.66,0,0,0-3.49,13.84,29.91,29.91,0,0,0,3.19,13.93,23.84,23.84,0,0,0,9,9.69,26,26,0,0,0,13.74,3.54,26.8,26.8,0,0,0,17-5.66Z" transform="translate(-93.28 -235.97)"/><path class="cls-2" d="M1154.29,491.75a36.23,36.23,0,0,1,2.88-14.34,38.12,38.12,0,0,1,8-12,38.51,38.51,0,0,1,11.91-8.18,36.6,36.6,0,0,1,28.93,0,39,39,0,0,1,12,8.18,38.24,38.24,0,0,1,8.13,12,35.75,35.75,0,0,1,2.93,14.34,36.25,36.25,0,0,1-2.93,14.54A37.94,37.94,0,0,1,1206,526.23a37.77,37.77,0,0,1-28.93,0,38.14,38.14,0,0,1-11.91-7.93,36.12,36.12,0,0,1-8-11.86A37.37,37.37,0,0,1,1154.29,491.75Zm10.91.1a26.92,26.92,0,0,0,13.13,23.42,25.71,25.71,0,0,0,13.53,3.64,25.06,25.06,0,0,0,13.33-3.64,27.65,27.65,0,0,0-.16-47.15,26.44,26.44,0,0,0-26.86.05,26.89,26.89,0,0,0-9.49,9.89A27.73,27.73,0,0,0,1165.2,491.85Z" transform="translate(-93.28 -235.97)"/><path class="cls-2" d="M1245.27,455.09h10.5v63h36.76v10.2h-47.26Z" transform="translate(-93.28 -235.97)"/><path class="cls-2" d="M1302.42,491.75a36.23,36.23,0,0,1,2.88-14.34,38.37,38.37,0,0,1,20-20.15,35.47,35.47,0,0,1,14.43-3,35.86,35.86,0,0,1,14.49,3,39,39,0,0,1,12,8.18,38.24,38.24,0,0,1,8.13,12,35.75,35.75,0,0,1,2.93,14.34,36.25,36.25,0,0,1-2.93,14.54,37.94,37.94,0,0,1-20.15,19.94,36.82,36.82,0,0,1-14.49,2.88,36.42,36.42,0,0,1-14.43-2.88,38.07,38.07,0,0,1-11.92-7.93,36.12,36.12,0,0,1-8-11.86A37.37,37.37,0,0,1,1302.42,491.75Zm10.91.1a26.92,26.92,0,0,0,13.13,23.42,25.71,25.71,0,0,0,13.53,3.64,25.06,25.06,0,0,0,13.33-3.64,27.66,27.66,0,0,0-.15-47.15,26.44,26.44,0,0,0-26.86.05,26.84,26.84,0,0,0-9.5,9.89A27.73,27.73,0,0,0,1313.33,491.85Z" transform="translate(-93.28 -235.97)"/><path class="cls-2" d="M1413.29,455.09a32.91,32.91,0,0,1,13.64,2.68,21.47,21.47,0,0,1,9.34,7.77,22.29,22.29,0,0,1,3.38,12.57,29.07,29.07,0,0,1-1.31,8.59,22.2,22.2,0,0,1-4.19,7.67,20.17,20.17,0,0,1-7.68,5.5,29.69,29.69,0,0,1-11.76,2.07H1403.9V528.3h-10.5V455.09Zm1.22,36.66c3.77,0,6.68-.73,8.73-2.17a11.65,11.65,0,0,0,4.29-5.26,15.79,15.79,0,0,0,1.21-5.8,14.43,14.43,0,0,0-.7-4.29,14.29,14.29,0,0,0-2.27-4.35,11.48,11.48,0,0,0-4.19-3.33,14.93,14.93,0,0,0-6.47-1.26H1403.9v26.46Zm12.32,6.26,19,30.29h-12.32l-19.29-30.09Z" transform="translate(-93.28 -235.97)"/></svg>