<svg id="Capa_1" data-name="Capa 1" xmlns="http://www.w3.org/2000/svg" viewBox="0 0 471.34 642.96"><defs><style>.cls-1{fill:#111;}.cls-2,.cls-3{fill:#fff;}.cls-2{opacity:0.4;}</style></defs><title>cartaModal</title><rect class="cls-1" width="471.34" height="642.96" rx="21"/><path class="cls-2" d="M894.47,566Z" transform="translate(-775.88 -189.04)"/><path class="cls-2" d="M899.92,566l.18,0v0Z" transform="translate(-775.88 -189.04)"/><path class="cls-2" d="M931.85,352.49a4.11,4.11,0,0,1,0-1.31,42,42,0,0,1-10-5.11c-3.23-2.09-6.9-3.62-8.73-6.32l-8.68-2.87a39.35,39.35,0,0,1-4.6-10.86c-2.21,1.44-4.46,2.41-6,4-1.81,1.88-4.69.9-6.27,2.9-2.93-.33-5.34,1.72-8.34,1.72-1.77,0-3.67,1.15-5.6,1.42s-3.64-.2-5.6.62c-1.78.74-4.13,0-6.18.2-2.73.32-5.24-1-7.89-.8-4.07.27-7.8-1-11.64-2.41l-1.24,1.15v11.24c-.8.57-1.63,1.12-2.42,1.72-1.68,1.3-3.74,2.36-4.89,4a9.66,9.66,0,0,1-4.63,3.88h-8.8c-1.14.83-1.59,1.81-.94,2.78,1,1.46,1.93,3.17,3.35,4,1.15.65,1.6,1.87,2.84,2.36a13.69,13.69,0,0,1,3,2.15,23.16,23.16,0,0,1,3.23,2.52,18.26,18.26,0,0,0,3.65,2.54,48.5,48.5,0,0,0,9.34,4.87c1.6,0,4-.46,6.19.14s4.05.16,6.05.45c1.15-1.72,3.06-.32,4.6-1.2,1.28-.74,3.26-.2,4.91-.38,2.81-.31,5.69-.44,8.32-1.59,1.94-.84,4.17-.35,6-1.5a7.75,7.75,0,0,1,2.78-.89c3.1-.57,6.15-1.44,9.19-2.29a20.33,20.33,0,0,0,4.4-1.6c1.91-1.07,4.22-.36,6-1.54,1.48-1,3.24-.37,4.7-.92a21.27,21.27,0,0,1,4.88-1.46c1.77-.25,3.44-1.32,5.22-1.44,4.28-.29,7.92-2.3,11.62-4.07,1.2-.58,2-2.16,2.78-3.45C933.14,354.28,932.17,353.4,931.85,352.49Zm-68.47,18.82c-3-.07-6.09.51-8.93-.14-4.6-1.06-9.19-.28-13.82-.76l-1.47-1.47c-2.93.46-4.82-1.42-7-4a10,10,0,0,1,2.57.47,28.47,28.47,0,0,0,7.71,3c.47.1.87.52,1.32.57,4.31.3,8.62.63,12.92.78,3.6.13,7.21,0,11,0-1.28,1.54-2.75,1.63-4.33,1.59Zm15.41-15.05-.18-1.3c1.72-.15,3.57,0,4.9-1.38a1.44,1.44,0,0,1,1-.26c2.81.23,5.39-.79,7.93-1.63s4.74-1.77,7.13-2.6c3.23-1.15,5.81-3.22,6.68-6.71h1.15V345c-1.54,1.52-3.18,3.17-5.09,5.08-.22,0-1-.15-1.42.18-2.14,1.83-4.91,2.08-7.3,3.16s-4.68,1.21-6.93,2.13a13.79,13.79,0,0,1-7.91.68Zm32.34-2.94h-.92c-.11.34-.23.67-.37,1.12-3.45,2.29-7.66,3.11-11.43,5-1.3.65-3,.67-4.46,1.51-1.21.7-3,.33-4.24,1-2.39,1.36-3.93.18-5.7-1.29,2-1.08,3.58-2.6,6-2.76,1.92-.12,3.45-1.95,5.57-1.6,1.76-1.78,4.48-1.15,6.39-2.49s4.37-1.72,6-3.56c.23-.26,1-.09,1.72-.14.1-.35.23-.79.35-1.22l2.23-.69,2,1.95Z" transform="translate(-775.88 -189.04)"/><path class="cls-2" d="M890.41,299.34c-1,.45,0,2.23-1.8,2.47-.74.1-.92,2-2.43,1.46-3,3-7.31,3.05-11,4.55-1.57.63-3.37.23-5.13.76a42.35,42.35,0,0,1-6.63,1.14,38,38,0,0,1-6.72.58c-2.12-.11-4.21-.66-6.32-.7a14.28,14.28,0,0,1-6-1.58c-.41-.21-1,0-1.73,0V284.1l1.15-1.15c1.83-.13,3.48,1,5.46.87,1.81-.16,3.68.57,5.52.64,1.21.05,2.42.33,3.73-.39.81-.45,2.29.45,3.44.4a17.32,17.32,0,0,0,5.5-.81c2.5-1,5.46-.35,7.65-2.27,2.76,0,4.56-2.17,7.34-3a5.52,5.52,0,0,1,.82,1.94c.09,2.3,2.16,3.94,1.81,6.32C887.24,290.71,888.49,295.16,890.41,299.34Z" transform="translate(-775.88 -189.04)"/><path class="cls-2" d="M873.86,252.13c-5.07,2.11-10.07,4.65-15.94,4.2l-1.23,1.36c-3.92.83-7.61-.31-11.4-.7l-1-1V235.64c1.47-3.31.58-6.8.76-10.21.07-1.76,1.19-3.26.86-5.17a31.24,31.24,0,0,1,0-5c3.3-3,7.19-3.78,11.41-3.41l1.23,1.28c-.23.48-.29.84-.46.89a18.66,18.66,0,0,0-3.44,1.4c2.49.22,4.59-.89,6.74-2,1.12,6,4.06,11.44,5,17.64l1.06,1.05c.73,2.66,1.31,5.17,2.11,7.55a22.83,22.83,0,0,1,1.44,4.9c.2,1.63,1.72,2.88,1.58,4.82C872.43,250.23,873.32,251.12,873.86,252.13Z" transform="translate(-775.88 -189.04)"/><path class="cls-2" d="M932.24,483.16a6,6,0,0,0-.76-2.41c-1.47-2.62-1.62-5.43-1.58-8.35.09-5.6,0-11.19.06-16.79a7.28,7.28,0,0,1,.48-3.32c.53-1.18,0-2.9-.15-4.39-.06-.61-.29-1.2-.35-1.81-.16-1.72.12-3.45-.66-5.21a4.28,4.28,0,0,1,.33-4.06,3,3,0,0,0,0-2.08c-.64-2.87-1.52-5.65-2-8.53-.37-2.21-.2-4.46-.66-6.73a45.5,45.5,0,0,0-1.12-5.85c-.65-1.87-.69-3.82-1.26-5.7-.87-2.9-1.48-5.91-3-8.54s-2-5.64-4-8.15c-2.29-3-3.64-6.68-6.39-9.45a7.93,7.93,0,0,1-2.18-3.74,5.07,5.07,0,0,0-2.25-3.57h-4.37c-1.18.61-2,1.34-2.9,1.46-3,.38-5.46,1.94-8.16,3-4.18,1.63-7.66,4.6-12,5.89-4.11,1.21-7.92,3.52-12.44,2.81-1.29-1.76-1.4-2.67-.54-5.7-2.77,1.85-5.07,3.76-6,6.76a8.11,8.11,0,0,1-4.2,5.34,10.63,10.63,0,0,0-4.07,3.24,25.11,25.11,0,0,0-3.36,7.55c-.36,1.51-.67,3.13-.93,4.72s-.52,2.91-.78,4.36-.15,3.39-.87,4.71c-1,1.83,0,4.06-1.47,5.65-.17,3.18-1.78,6.27-.09,9.56.58,1.09.25,2.61.72,4,.36,1-.46,2.56-1,3.79-1.48,3.58-3,7.14-3.57,11-1.63,1.31,0,3.52-1.37,4.9-.72,5-2.88,9.77-2.57,15a11.07,11.07,0,0,1-.46,2.14c-.58,3.77-2.76,7.29-1.49,12.1l4.33,4.76c.38,5.74-2.47,10.91-3.25,17.23l-.58,3.53v13.26l-2.47,8.72,2.47,5.17-.9,5.17-2,5.35,2,4.76-3,4-1.07,3,1.07,4.39a5.78,5.78,0,0,1-.48,4.37,17.21,17.21,0,0,0-1.58,6c-.36,4.18,0,8.36-.71,12.59-.81,5.16,0,10.43-.77,15.7-.9,6.19-.11,12.51-.76,18.83-1,9.33,0,18.77-.75,28.2-.58,7.37-.93,14.94.51,22.35.53,2.69-.15,5.53.79,8.29.58,1.72-.08,3.63.71,5.56.71,1.72.07,3.92.84,5.92.5,1.31.15,2.87.75,4.37s.09,3.13.81,4.76,0,3.34.69,5.17a23.34,23.34,0,0,1,.87,5.49,26.2,26.2,0,0,0,2.18,7.34c.35.85.74,1.72,1.15,2.52h-.46c1,2.14,2,4.32,3,6.5a6.2,6.2,0,0,0-.78,5.91,16.46,16.46,0,0,1,.57,4.82c.1,1.68,0,3.38,0,5.08a8.69,8.69,0,0,0,5.93,7.93c2.83.85,5.63,1.91,8.68,1.52a7.29,7.29,0,0,1,1,1.73c.58,2.24,1.07,4.52,1.59,6.77.25,1.07.58,2.12.77,3.19.26,1.85.43,3.7.66,5.86l-1.67,2.51,4,1.47,2.49,2.38V783l1.26,1.26h4l-.45.58,1.58,1.58c-.26,0-.87.1-1.54.18-.7,3-4.12,3.6-5.41,6.26h0a1,1,0,0,0-.1.21,32.28,32.28,0,0,0,3.4-2,22.49,22.49,0,0,0,2.78-2.74c.87-.94,2.22-1.29,2.82-2.67.23-.57,1.46-.68,2.3-1-.22-1.85,2.14-1.8,2.83-3.26.34-.73,2.16-.77,3.49-1.18.45,1.37-.47,3.31,1.72,4,1.21-.37,2.58-.78,3.87-1.15.37-3.11-2.38-2.87-3.67-3.83l1.91-2.37c4.87,3.55,9.81,6.62,12.89,11.9,1.9.37,3.83.72,5.09,1l4-1.84.18,2.21c1.69,0,2.21,2.73,3.92,1.49l6.18-6.18c-1.15-2.2-.54-5.49-3-7.74l-1.4,1-.44-1.23-2.67-1.08c-1.63-6.69-.9-13-1.1-19.41,1.95-.57,2.53-2.52,3.94-3.66,0-1.84-.43-3.8.11-5.45s.49-3.32,1.32-4.93c.63-1.23.13-3,.13-4.5L910,736.85v-3c0-3.55.17-7.11,0-10.65h0c.21-2.48.58-5,.58-7.46q.08-38.31,0-76.62c0-1-.43-2.45.09-3,1.21-1.47.43-3,.69-4.44a29.07,29.07,0,0,0,.75-4.76c.07-9,0-18,0-27a7.12,7.12,0,0,0-.48-2.92c-1.08-2.62.37-8.37,2.3-10.52a15.83,15.83,0,0,0,4.26-9.91c.11-3.55.75-7,.95-10.58V555.05l-2.43-4.16v-4l-4.17-1.78-.85-2.87c3.94-1,5.61-4.7,6.9-8.8.57-1.15-.13-2.52.84-3.91a4,4,0,0,0,0-3.73c-1-1.4-.57-2.71-.64-4-.1-1.83,0-3.65,0-5.32,2.45-3.77,2.47-7.89,2.3-11.88.89-.89,1.63-1.61,2.37-2.34v-2.45l8.61-10.53A45.76,45.76,0,0,0,932.24,483.16ZM883.36,769.85c-.68,2.12-1.2,3.72-1.79,5.55h-1.64c-1.72-7-3.13-14.16-4.51-21.72,3,0,5.28,1.32,7.92,1.69a60.22,60.22,0,0,1,.91,7.62A47.87,47.87,0,0,1,883.36,769.85Zm17.2-190.24a9.4,9.4,0,0,1-.94,3.52c-.72,1.77-.47,3.45-.63,4.85l-1.1,2.12H896c0-.11-.06-.24-.08-.35.35-.15.72-.28,1.26-.48.25-2.11.53-4.39.84-7l-2.68,1.07c-.37,3.25-.75,6.48-1.15,9.8l-3.46,2.41-1.14-1,2.38-1.36a12.56,12.56,0,0,0,0-1.94c-.34-2-.58-3.66.06-4.8,1-1.8.68-3.61.74-6-3.32,4.89-3.44,10-4.11,15.13a9.25,9.25,0,0,1-6.71,1.6c1.28-1.47,1.28-1.47,3.76-1.77l-.67-.85a.64.64,0,0,1,.11-.24c.35-.37.73-.74,1.1-1.11.33-1.4.66-2.81,1-4.49l-2,.93-.61-1.72-.58.41v-3.5c-1.51.81-.37,2-.7,3s-.53,2.12-.81,3.18-.5,1.87-.78,2.8-.67,2.07-1,3.22l-1.78.9c-.71-.75-2-1-2.39-2.33a6.69,6.69,0,0,1,.36-3.51c.55-2.2.16-4.63.16-7-1.24-.68-1.28-2-1.8-3.1a2.61,2.61,0,0,1,.1-3.05c.46-.75,0-2,.17-3s.77-1.89.7-2.8c-.19-2.58,1.05-4.76,1.78-7.07l10.57-1.38a10.77,10.77,0,0,0,3,.57c1.7,0,3.4-.09,5.07,0A21.64,21.64,0,0,1,900,566h.2l.21-.47.07.47h-.28v0l-.17,0h-.17c0,1-.08,2,0,3,.21,2.12.57,4.21.74,6.32C900.64,576.74,900.53,578.18,900.56,579.61Z" transform="translate(-775.88 -189.04)"/><polygon class="cls-2" points="86.14 317.54 86.03 317.54 86.03 317.54 86.14 317.54"/><path class="cls-2" d="M900.14,566v0l-.18,0Z" transform="translate(-775.88 -189.04)"/><path class="cls-2" d="M915.65,801.58c-.57,2-1.1,3.81-1.64,5.66a10.47,10.47,0,0,1-4.59,1.23,69.77,69.77,0,0,0-7.83,1.81,63.91,63.91,0,0,1-8.55,1.93c-3,.29-5.67,1.61-8.61,2-2.19.26-4.34.88-6.52,1.22a20.31,20.31,0,0,1-3.12,0c-3.52,0-7-.1-10.55,0s-6.82.72-10.23.69-6.76-1-10.24-.8c-.95.05-1.95-.87-2.87-1.32-.46-1.55-.87-3-1.37-4.68-1.09-.26-2.61-1.15-3.86-.86-6.54,1.45-13.1.34-19.64.65-2.9.14-5.85.37-9.19-1.15-2.25-2.11-3.29-5.35-3.92-9.54.92.64,1.51.82,1.6,1.15.5,1.8,2,2.42,3.49,3.15s3.07,0,4.76.7a7.23,7.23,0,0,0,6-.21,1.82,1.82,0,0,1,1-.29c2.19.29,4.22-.58,6.32-.77s4.43.06,6.65-.08a19.79,19.79,0,0,0,4.32-.85c.53-.16.88-.83,1.38-1.32-2.2-2.62-4.22-5-6.41-7.67.44-.31,1-.71,1.51-1.06s1.07-.57,1.65-.87c3.45,2.7,5.78,6.84,10.24,8.1.27-.28.43-.37.44-.47.08-.5.12-1,.17-1.55-2.11-2.5-4.22-5-6.56-7.76l2.88-2c3.16,1,3.74,4.65,6.68,6.15h2l2.38,2.14c.24-1.15.37-1.84.54-2.69-2.09-2.09-4.21-4.2-6.5-6.5l2-2.3h2.26a42.12,42.12,0,0,1,4.65,5.3,9.25,9.25,0,0,0,4.85,4.16h0c-3,2.93-3.15,3-6.95,3l-5.44,3.87c-.18-.17-.37-.34-.64-.61-2.76.76-4.35,3.85-7.51,3.89v4.14c6.52,3.73,13.62,4.37,20.55,3.35,5.56-.81,11,0,15.82-.66,1-.51,1.56-.82,2.37-1.25-3.54-3.75-7.63-6-11.83-8.5l1.37-1.73h3.6l3.35,3H877l2.7,3.13s.83-.18,1.2.14c1.2,1.08,2.24,2.34,3.55,3.75l5.39-1c0-.36,0-.71-.09-1.34l-1.19.88-2.3-3.93c-.15.42-.3.86-.58,1.72-1.43-1.72-3.28-2.75-4-4.86h-2.36l-3-3-2.08-.24c0-.49.08-.93.13-1.57l1.15,1c.15-.77.28-1.48.46-2.39,1.81-.19,3.25.25,4,2.3l.82-.64c1.72,1,4,1.61,4,4.52.28-.53.57-1,1-1.89l4.13,3.91v3.35l.41.08a2.87,2.87,0,0,1,.32-1c.2-.26.58-.36,1.08-.62l.77,1.65h2.12a8.29,8.29,0,0,0-3.84-6.12,7.35,7.35,0,0,1-3.5-3.84H884.8l-2.16-2.84v-1.11l-.37,0c-.15.76-.31,1.54-.48,2.39-1.72-.23-2.24-1.22-2.09-3a8.24,8.24,0,0,0,1.63-.25,12.21,12.21,0,0,0,1.79-.94c.86,1.08,1.72,2.12,2.52,3.14l.74-1.56c6.32,2.77,10.63,7.47,13.92,13.28.23-.14.5-.48.78-.48,4.63,0,8.72-3,13.46-2.47A9.46,9.46,0,0,1,915.65,801.58Z" transform="translate(-775.88 -189.04)"/><path class="cls-2" d="M936.11,537" transform="translate(-775.88 -189.04)"/><polygon class="cls-2" points="86.14 317.54 86.03 317.54 86.03 317.54 86.14 317.54"/><polygon class="cls-2" points="86.14 317.54 86.03 317.54 86.03 317.54 86.14 317.54"/><path class="cls-3" d="M966.43,801.05l9.8-23.2h.19l9.8,23.2H982.5l-7.13-18.16,2.31-1.51-8,19.67Zm5.93-8.36h8l1.11,2.77H971.41Z" transform="translate(-775.88 -189.04)"/><path class="cls-3" d="M990.25,801.05V778h0l11.81,16.75-1.39-.27L1012.48,778h.06v23h-3.2V785.32l.19,1.63-8.24,11.71h-.07L992.8,787l.56-1.51v15.61Z" transform="translate(-775.88 -189.04)"/><path class="cls-3" d="M1018.84,778.77h3.2v22.28h-3.2Z" transform="translate(-775.88 -189.04)"/><path class="cls-3" d="M1047.76,801.82l-17.18-17.15,1,.31.07,16.07h-3.23v-23h.12l17,17.15-.74-.18-.06-16.26h3.2v23.05Z" transform="translate(-775.88 -189.04)"/><path class="cls-3" d="M1052.8,789.93a11.15,11.15,0,0,1,.88-4.37,11.67,11.67,0,0,1,2.45-3.64,11.47,11.47,0,0,1,3.62-2.49,11.12,11.12,0,0,1,8.81,0,11.77,11.77,0,0,1,6.13,6.13,11.3,11.3,0,0,1,0,8.79,11.48,11.48,0,0,1-6.13,6.07,11.47,11.47,0,0,1-8.81,0,11.41,11.41,0,0,1-3.62-2.41,11,11,0,0,1-2.45-3.61A11.42,11.42,0,0,1,1052.8,789.93Zm3.33,0a8.18,8.18,0,0,0,4,7.13,7.83,7.83,0,0,0,4.12,1.11,7.62,7.62,0,0,0,4.06-1.11,8.43,8.43,0,0,0,0-14.36,7.79,7.79,0,0,0-4.07-1.1,7.63,7.63,0,0,0-4.1,1.12,8.11,8.11,0,0,0-2.89,3A8.4,8.4,0,0,0,1056.13,790Z" transform="translate(-775.88 -189.04)"/><path class="cls-3" d="M951.2,546.45q-16.61,0-29.41-8.2t-20.08-23.57q-7.29-15.36-7.28-36.88,0-23.37,7.07-38.53t19.88-22.64q12.81-7.49,29.82-7.28,16.59-.19,29.4,8t20.09,23.57q7.26,15.38,7.27,36.89,0,22.13-7.27,37.5T980.6,538.56Q967.79,546.45,951.2,546.45Zm-.21-20.7q11.68,0,19.37-6.15t11.47-17.11a76.59,76.59,0,0,0,3.79-25.1,73.88,73.88,0,0,0-3.79-24.8Q978,441.94,970.36,436T951,430.05q-11.47,0-19.06,6T920.56,452.9a83.33,83.33,0,0,0,0,49.69q3.78,10.87,11.37,17T951,525.75Z" transform="translate(-775.88 -189.04)"/><path class="cls-3" d="M1063.09,502a37.88,37.88,0,0,1-19.58-5.53,43.32,43.32,0,0,1-15.16-15.27,42.41,42.41,0,0,1-5.84-22.24q0-14.74,6.76-25.51a45.74,45.74,0,0,1,17.73-16.5,49.49,49.49,0,0,1,23.26-5.74,50.59,50.59,0,0,1,25,6.15,46.27,46.27,0,0,1,17.52,16.91,47.07,47.07,0,0,1,6.46,24.69,70.23,70.23,0,0,1-6,29.31,90.5,90.5,0,0,1-15.78,23.87,161.93,161.93,0,0,1-21.72,19.78q-11.88,9-23.77,16.8l-14.35-15.78A180.34,180.34,0,0,0,1067.18,515q12.51-9.53,19.68-19.26t8-18.34l5.94.2q-5.94,11.9-14.45,18.14T1063.09,502Zm8-18.24q11.48,0,18.85-6.76a22.1,22.1,0,0,0,7.38-17v-4.1a25,25,0,0,0-3.79-12.71,27.82,27.82,0,0,0-9.43-9.22,24.92,24.92,0,0,0-13-3.48,25.7,25.7,0,0,0-18.65,7.38q-7.59,7.37-7.58,19.67,0,12.09,7.68,19.16A26.42,26.42,0,0,0,1071.08,483.74Z" transform="translate(-775.88 -189.04)"/><circle class="cls-3" cx="258.72" cy="119.1" r="45.07"/><circle class="cls-3" cx="258.72" cy="462.07" r="45.07"/></svg>