<svg id="Capa_1" data-name="Capa 1" xmlns="http://www.w3.org/2000/svg" viewBox="0 0 762.17 968.64"><defs><style>.cls-1{fill:#0c0c0c;}.cls-2{fill:#fff;}.cls-3{fill:#19d8a2;}</style></defs><title>panelModal</title><rect class="cls-1" width="762.17" height="968.64" rx="35"/><circle class="cls-2" cx="205.37" cy="218" r="35.69"/><circle class="cls-2" cx="291.03" cy="218" r="35.69"/><circle class="cls-2" cx="374.5" cy="218" r="35.69"/><circle class="cls-2" cx="466.75" cy="218" r="35.69"/><circle class="cls-2" cx="556.8" cy="218" r="35.69"/><circle class="cls-2" cx="205.37" cy="773.7" r="35.69"/><circle class="cls-2" cx="291.03" cy="773.7" r="35.69"/><circle class="cls-2" cx="374.5" cy="773.7" r="35.69"/><circle class="cls-2" cx="466.75" cy="773.7" r="35.69"/><circle class="cls-2" cx="556.8" cy="773.7" r="35.69"/><path class="cls-2" d="M876.07,173.27l8.41-19.9h.16l8.41,19.9h-3.19l-6.12-15.58,2-1.29-6.91,16.87Zm5.09-7.17H888l1,2.37h-8.62Z" transform="translate(-627.22 -47.36)"/><path class="cls-2" d="M901.72,154.16a7.23,7.23,0,0,1,4.95,1.58,5.57,5.57,0,0,1,1.79,4.43,7.52,7.52,0,0,1-.34,2.24,5.92,5.92,0,0,1-1.09,2,5.31,5.31,0,0,1-2,1.45,7.4,7.4,0,0,1-3,.54h-2.82v6.85H896.5V154.16Zm.31,9.57a4.08,4.08,0,0,0,1.81-.36,3.05,3.05,0,0,0,1.13-.91,3.51,3.51,0,0,0,.58-1.16,3.76,3.76,0,0,0,.17-1.08,3.86,3.86,0,0,0-.17-1.12A3.29,3.29,0,0,0,905,158a3.11,3.11,0,0,0-1.09-.84,4,4,0,0,0-1.71-.33h-2.93v6.91Z" transform="translate(-627.22 -47.36)"/><path class="cls-2" d="M914.84,166.44a4.15,4.15,0,0,0,.6,2.2,4.29,4.29,0,0,0,1.62,1.57,4.48,4.48,0,0,0,2.26.58,4.68,4.68,0,0,0,2.35-.58,4.36,4.36,0,0,0,1.62-1.57,4.15,4.15,0,0,0,.59-2.2V154.16h2.72v12.36a6.67,6.67,0,0,1-3.6,6.09,8.2,8.2,0,0,1-7.35,0,6.6,6.6,0,0,1-2.61-2.44,6.83,6.83,0,0,1-1-3.65V154.16h2.76Z" transform="translate(-627.22 -47.36)"/><path class="cls-2" d="M931.74,154.16h12.52v2.66h-9.78v5.51h8.72V165h-8.72v5.62h10.15v2.66H931.74Z" transform="translate(-627.22 -47.36)"/><path class="cls-2" d="M958.94,157.77a14,14,0,0,0-2.16-.9,7.58,7.58,0,0,0-2.24-.36,3.77,3.77,0,0,0-2.37.67,2.19,2.19,0,0,0-.88,1.86,2,2,0,0,0,.59,1.42,5.11,5.11,0,0,0,1.5,1c.61.3,1.26.58,2,.85a13.54,13.54,0,0,1,2.29,1.06,5.47,5.47,0,0,1,1.82,1.73,5.25,5.25,0,0,1,.71,2.9,5.1,5.1,0,0,1-.76,2.74,5.33,5.33,0,0,1-2.18,2,7.24,7.24,0,0,1-3.38.73,10.41,10.41,0,0,1-3.5-.59,12.66,12.66,0,0,1-2.83-1.41l1.24-2.19a9.25,9.25,0,0,0,2.26,1.24,7,7,0,0,0,2.56.52,5.14,5.14,0,0,0,1.74-.3,3.29,3.29,0,0,0,1.41-1,2.57,2.57,0,0,0,.57-1.74,2.4,2.4,0,0,0-.5-1.53,4.41,4.41,0,0,0-1.31-1.08,12.33,12.33,0,0,0-1.72-.79c-.6-.23-1.21-.48-1.84-.75a7.74,7.74,0,0,1-1.71-1,4.66,4.66,0,0,1-1.26-1.49,4.29,4.29,0,0,1-.49-2.14,4.89,4.89,0,0,1,.72-2.69,5.1,5.1,0,0,1,2-1.79,6.94,6.94,0,0,1,2.95-.72,10.68,10.68,0,0,1,3.32.47,11.39,11.39,0,0,1,2.51,1.12Z" transform="translate(-627.22 -47.36)"/><path class="cls-2" d="M962.84,154.16h12.73v2.66h-5.06v16.45h-2.77V156.82h-4.9Z" transform="translate(-627.22 -47.36)"/><path class="cls-2" d="M976.1,173.27l8.41-19.9h.15l8.41,19.9h-3.19l-6.11-15.58,2-1.29-6.9,16.87Zm5.08-7.17H988l1,2.37h-8.62Z" transform="translate(-627.22 -47.36)"/><path class="cls-2" d="M1006.46,157.77a14,14,0,0,0-2.16-.9,7.53,7.53,0,0,0-2.24-.36,3.77,3.77,0,0,0-2.37.67,2.21,2.21,0,0,0-.87,1.86,2,2,0,0,0,.58,1.42,5.11,5.11,0,0,0,1.5,1c.61.3,1.27.58,2,.85a13.19,13.19,0,0,1,2.29,1.06,5.38,5.38,0,0,1,1.82,1.73,5.17,5.17,0,0,1,.71,2.9,5.1,5.1,0,0,1-.76,2.74,5.33,5.33,0,0,1-2.18,2,7.21,7.21,0,0,1-3.38.73,10.31,10.31,0,0,1-3.49-.59,12.75,12.75,0,0,1-2.84-1.41l1.24-2.19a9.33,9.33,0,0,0,2.27,1.24,7,7,0,0,0,2.55.52,5.14,5.14,0,0,0,1.74-.3,3.18,3.18,0,0,0,1.41-1,2.57,2.57,0,0,0,.57-1.74,2.4,2.4,0,0,0-.5-1.53,4.36,4.36,0,0,0-1.3-1.08,13,13,0,0,0-1.73-.79q-.9-.35-1.83-.75a7.58,7.58,0,0,1-1.72-1,4.79,4.79,0,0,1-1.26-1.49,4.29,4.29,0,0,1-.49-2.14,4.81,4.81,0,0,1,.73-2.69,5,5,0,0,1,2-1.79,7,7,0,0,1,2.95-.72,10.75,10.75,0,0,1,3.33.47,11.51,11.51,0,0,1,2.5,1.12Z" transform="translate(-627.22 -47.36)"/><path class="cls-2" d="M1013.31,173.27l8.41-19.9h.16l8.41,19.9h-3.19L1021,157.69l2-1.29-6.91,16.87Zm5.09-7.17h6.85l1,2.37h-8.62Z" transform="translate(-627.22 -47.36)"/><path class="cls-2" d="M1046.74,171.82a14,14,0,0,1-1.28.7,11.29,11.29,0,0,1-2,.7,9,9,0,0,1-2.44.26,10.35,10.35,0,0,1-4-.79,9,9,0,0,1-3-2.1,9.2,9.2,0,0,1-1.91-3.05,10.22,10.22,0,0,1-.66-3.68,11.07,11.07,0,0,1,.7-4,9.36,9.36,0,0,1,2-3.13,8.82,8.82,0,0,1,3-2.07,9.37,9.37,0,0,1,3.78-.74,10.13,10.13,0,0,1,3.16.47,11.76,11.76,0,0,1,2.4,1.08l-1.11,2.59a10.82,10.82,0,0,0-1.88-1,6.46,6.46,0,0,0-2.49-.47,6.13,6.13,0,0,0-3.31.95,6.93,6.93,0,0,0-2.42,2.56,7.15,7.15,0,0,0-.91,3.61,7.71,7.71,0,0,0,.83,3.63,6.22,6.22,0,0,0,2.36,2.54,6.84,6.84,0,0,0,3.58.92,7,7,0,0,0,2.6-.45,7.15,7.15,0,0,0,1.83-1Z" transform="translate(-627.22 -47.36)"/><path class="cls-2" d="M1051,154.16h12.52v2.66h-9.78v5.51h8.73V165h-8.73v5.62h10.15v2.66H1051Z" transform="translate(-627.22 -47.36)"/><path class="cls-2" d="M1073.41,154.16a8.57,8.57,0,0,1,3.56.7,5.6,5.6,0,0,1,2.44,2,5.85,5.85,0,0,1,.88,3.28,7.85,7.85,0,0,1-.34,2.24,5.68,5.68,0,0,1-1.1,2,5.29,5.29,0,0,1-2,1.44,7.77,7.77,0,0,1-3.07.54H1071v6.88h-2.74V154.16Zm.32,9.57a3.92,3.92,0,0,0,2.28-.57,3.05,3.05,0,0,0,1.12-1.37,4.17,4.17,0,0,0,.31-1.52,3.89,3.89,0,0,0-.18-1.12,3.75,3.75,0,0,0-.6-1.13,2.88,2.88,0,0,0-1.09-.87,3.89,3.89,0,0,0-1.69-.33H1071v6.91Zm3.21,1.63,5,7.91h-3.22l-5-7.86Z" transform="translate(-627.22 -47.36)"/><path class="cls-2" d="M1084,154.16h12.73v2.66h-5.06v16.45h-2.77V156.82H1084Z" transform="translate(-627.22 -47.36)"/><path class="cls-2" d="M1097.29,173.27l8.41-19.9h.16l8.4,19.9h-3.19L1105,157.69l2-1.29L1100,173.27Zm5.09-7.17h6.85l1,2.37h-8.62Z" transform="translate(-627.22 -47.36)"/><path class="cls-2" d="M1117.72,173.27V154.16H1123a12.17,12.17,0,0,1,4.83.86,8.63,8.63,0,0,1,3.21,2.29,9.2,9.2,0,0,1,1.81,3.18,11,11,0,0,1,.56,3.47,9.64,9.64,0,0,1-.75,3.87,8.36,8.36,0,0,1-2.08,2.93,9.4,9.4,0,0,1-3,1.86,10.21,10.21,0,0,1-3.61.65Zm2.74-2.66h3a8.34,8.34,0,0,0,3.69-.79,6.05,6.05,0,0,0,2.54-2.32,7,7,0,0,0,.94-3.72,7.52,7.52,0,0,0-.59-3.1,6.34,6.34,0,0,0-1.57-2.16,6.54,6.54,0,0,0-2.19-1.28,7.56,7.56,0,0,0-2.48-.42h-3.29Z" transform="translate(-627.22 -47.36)"/><path class="cls-2" d="M1134.58,173.27l8.41-19.9h.16l8.41,19.9h-3.19l-6.12-15.58,2-1.29-6.9,16.87Zm5.09-7.17h6.85l1,2.37h-8.62Z" transform="translate(-627.22 -47.36)"/><path class="cls-2" d="M1165,157.77a14,14,0,0,0-2.16-.9,7.58,7.58,0,0,0-2.24-.36,3.78,3.78,0,0,0-2.38.67,2.21,2.21,0,0,0-.87,1.86,2,2,0,0,0,.58,1.42,5.31,5.31,0,0,0,1.51,1c.61.3,1.26.58,1.95.85a13.54,13.54,0,0,1,2.29,1.06,5.47,5.47,0,0,1,1.82,1.73,5.25,5.25,0,0,1,.71,2.9,5.1,5.1,0,0,1-.76,2.74,5.33,5.33,0,0,1-2.18,2,7.25,7.25,0,0,1-3.39.73,10.4,10.4,0,0,1-3.49-.59,12.66,12.66,0,0,1-2.83-1.41l1.24-2.19a9.25,9.25,0,0,0,2.26,1.24,7,7,0,0,0,2.56.52,5.14,5.14,0,0,0,1.74-.3,3.29,3.29,0,0,0,1.41-1,2.57,2.57,0,0,0,.57-1.74,2.4,2.4,0,0,0-.5-1.53,4.41,4.41,0,0,0-1.31-1.08,12.33,12.33,0,0,0-1.72-.79c-.6-.23-1.21-.48-1.84-.75a7.74,7.74,0,0,1-1.71-1,4.66,4.66,0,0,1-1.26-1.49,4.29,4.29,0,0,1-.49-2.14,4.89,4.89,0,0,1,.72-2.69,5.1,5.1,0,0,1,2-1.79,6.94,6.94,0,0,1,3-.72,10.68,10.68,0,0,1,3.32.47,11.39,11.39,0,0,1,2.51,1.12Z" transform="translate(-627.22 -47.36)"/><path class="cls-2" d="M863.24,422.13a7.25,7.25,0,0,1,5,1.58,5.57,5.57,0,0,1,1.79,4.43,7.52,7.52,0,0,1-.34,2.24,5.79,5.79,0,0,1-1.09,2,5.21,5.21,0,0,1-2,1.45,7.4,7.4,0,0,1-3,.54h-2.82v6.86H858V422.13Zm.31,9.57a4.08,4.08,0,0,0,1.81-.36,3.05,3.05,0,0,0,1.13-.91,3.51,3.51,0,0,0,.58-1.16,3.76,3.76,0,0,0,.17-1.08,3.86,3.86,0,0,0-.17-1.12,3.2,3.2,0,0,0-.58-1.11,3.11,3.11,0,0,0-1.09-.84,4,4,0,0,0-1.72-.33h-2.92v6.91Z" transform="translate(-627.22 -47.36)"/><path class="cls-2" d="M872.49,422.13h12.73v2.66h-5.06v16.45h-2.77V424.79h-4.9Z" transform="translate(-627.22 -47.36)"/><path class="cls-2" d="M899.16,425.74a14,14,0,0,0-2.16-.9,7.55,7.55,0,0,0-2.24-.37,3.77,3.77,0,0,0-2.37.68,2.19,2.19,0,0,0-.87,1.85,2,2,0,0,0,.58,1.43,5.11,5.11,0,0,0,1.5,1.05c.61.3,1.27.58,1.95.85a13.19,13.19,0,0,1,2.29,1.06,5.38,5.38,0,0,1,1.82,1.73,5.77,5.77,0,0,1,0,5.64,5.3,5.3,0,0,1-2.17,2,7.28,7.28,0,0,1-3.39.73,10.08,10.08,0,0,1-3.49-.6,11.94,11.94,0,0,1-2.84-1.41l1.24-2.18a9.33,9.33,0,0,0,2.27,1.24,7,7,0,0,0,2.55.52,5.14,5.14,0,0,0,1.74-.3,3.18,3.18,0,0,0,1.41-1,2.57,2.57,0,0,0,.57-1.74,2.4,2.4,0,0,0-.5-1.53,4.36,4.36,0,0,0-1.3-1.08,13,13,0,0,0-1.73-.79q-.9-.35-1.83-.75a8,8,0,0,1-1.72-1,4.79,4.79,0,0,1-1.26-1.49,4.33,4.33,0,0,1-.49-2.15,4.8,4.8,0,0,1,.73-2.68,5,5,0,0,1,2-1.8,7.12,7.12,0,0,1,3-.71,11.07,11.07,0,0,1,3.33.46,12.56,12.56,0,0,1,2.5,1.12Z" transform="translate(-627.22 -47.36)"/><path class="cls-2" d="M910,422.13h12.73v2.66h-5.06v16.45h-2.77V424.79H910Z" transform="translate(-627.22 -47.36)"/><path class="cls-2" d="M924.78,431.7a9.51,9.51,0,0,1,.75-3.75,10.09,10.09,0,0,1,5.21-5.26,9.35,9.35,0,0,1,3.77-.77,9.5,9.5,0,0,1,3.78.77,10.07,10.07,0,0,1,3.13,2.14,10,10,0,0,1,2.13,3.12,9.73,9.73,0,0,1,0,7.54,9.68,9.68,0,0,1-2.13,3.11,9.79,9.79,0,0,1-3.13,2.1,9.66,9.66,0,0,1-3.78.75,9.5,9.5,0,0,1-3.77-.75,9.84,9.84,0,0,1-3.11-2.07,9.35,9.35,0,0,1-2.1-3.1A9.76,9.76,0,0,1,924.78,431.7Zm2.85,0a7,7,0,0,0,.92,3.56,7.05,7.05,0,0,0,2.5,2.56,6.77,6.77,0,0,0,3.53,1,6.54,6.54,0,0,0,3.48-1,7.21,7.21,0,0,0,0-12.31,6.91,6.91,0,0,0-7,0,7,7,0,0,0-2.47,2.58A7.22,7.22,0,0,0,927.63,431.72Z" transform="translate(-627.22 -47.36)"/><path class="cls-2" d="M946.34,422.13h12.73v2.66H954v16.45h-2.77V424.79h-4.9Z" transform="translate(-627.22 -47.36)"/><path class="cls-2" d="M959.6,441.24l8.41-19.9h.15l8.41,19.9h-3.19l-6.11-15.58,2-1.29-6.9,16.87Zm5.08-7.17h6.86l1,2.37h-8.62Z" transform="translate(-627.22 -47.36)"/><path class="cls-2" d="M980,422.13h2.75v16.45h9.59v2.66H980Z" transform="translate(-627.22 -47.36)"/><path class="cls-2" d="M996.5,422.13H1009v2.66h-9.78v5.51H1008V433h-8.72v5.62h10.15v2.66H996.5Z" transform="translate(-627.22 -47.36)"/><path class="cls-2" d="M1023.7,425.74a14,14,0,0,0-2.16-.9,7.6,7.6,0,0,0-2.24-.37,3.77,3.77,0,0,0-2.37.68,2.19,2.19,0,0,0-.87,1.85,2,2,0,0,0,.58,1.43,5.11,5.11,0,0,0,1.5,1.05c.61.3,1.26.58,2,.85a13.54,13.54,0,0,1,2.29,1.06,5.38,5.38,0,0,1,1.82,1.73,5.25,5.25,0,0,1,.71,2.9,5.12,5.12,0,0,1-.76,2.74,5.33,5.33,0,0,1-2.18,2,7.24,7.24,0,0,1-3.38.73,10.18,10.18,0,0,1-3.5-.6,12.06,12.06,0,0,1-2.83-1.41l1.24-2.18a9.14,9.14,0,0,0,2.27,1.24,7,7,0,0,0,2.55.52,5.14,5.14,0,0,0,1.74-.3,3.29,3.29,0,0,0,1.41-1A2.57,2.57,0,0,0,1022,436a2.4,2.4,0,0,0-.5-1.53,4.41,4.41,0,0,0-1.31-1.08,12.33,12.33,0,0,0-1.72-.79c-.6-.23-1.21-.48-1.84-.75a8.14,8.14,0,0,1-1.71-1,4.66,4.66,0,0,1-1.26-1.49,4.33,4.33,0,0,1-.49-2.15,4.88,4.88,0,0,1,.72-2.68,5.12,5.12,0,0,1,2-1.8,7.08,7.08,0,0,1,2.95-.71,11,11,0,0,1,3.32.46,12.4,12.4,0,0,1,2.51,1.12Z" transform="translate(-627.22 -47.36)"/><path class="cls-3" d="M1035.72,430.27h2.42v3.64h3.59v2.32h-3.59v3.64h-2.42v-3.64h-3.59v-2.32h3.59Z" transform="translate(-627.22 -47.36)"/><path class="cls-2" d="M1055.7,422.13a7.25,7.25,0,0,1,5,1.58,5.57,5.57,0,0,1,1.79,4.43,7.52,7.52,0,0,1-.34,2.24,5.79,5.79,0,0,1-1.09,2,5.21,5.21,0,0,1-2,1.45,7.43,7.43,0,0,1-3,.54h-2.82v6.86h-2.74V422.13Zm.31,9.57a4.08,4.08,0,0,0,1.81-.36,3.05,3.05,0,0,0,1.13-.91,3.51,3.51,0,0,0,.58-1.16,4.14,4.14,0,0,0,.17-1.08,4.24,4.24,0,0,0-.17-1.12A3.2,3.2,0,0,0,1059,426a3.11,3.11,0,0,0-1.09-.84,4,4,0,0,0-1.72-.33h-2.92v6.91Z" transform="translate(-627.22 -47.36)"/><path class="cls-2" d="M1065,422.13h12.73v2.66h-5.06v16.45h-2.77V424.79H1065Z" transform="translate(-627.22 -47.36)"/><path class="cls-2" d="M1091.62,425.74a14,14,0,0,0-2.16-.9,7.55,7.55,0,0,0-2.24-.37,3.77,3.77,0,0,0-2.37.68A2.19,2.19,0,0,0,1084,427a2,2,0,0,0,.58,1.43,5.11,5.11,0,0,0,1.5,1.05c.61.3,1.26.58,2,.85a13.54,13.54,0,0,1,2.29,1.06,5.38,5.38,0,0,1,1.82,1.73,5.77,5.77,0,0,1,0,5.64,5.33,5.33,0,0,1-2.18,2,7.21,7.21,0,0,1-3.38.73,10.18,10.18,0,0,1-3.5-.6,12.06,12.06,0,0,1-2.83-1.41l1.24-2.18a9.33,9.33,0,0,0,2.27,1.24,7,7,0,0,0,2.55.52,5.14,5.14,0,0,0,1.74-.3,3.29,3.29,0,0,0,1.41-1A2.57,2.57,0,0,0,1090,436a2.4,2.4,0,0,0-.5-1.53,4.28,4.28,0,0,0-1.31-1.08,12.33,12.33,0,0,0-1.72-.79q-.9-.35-1.83-.75a8,8,0,0,1-1.72-1,4.66,4.66,0,0,1-1.26-1.49,4.33,4.33,0,0,1-.49-2.15,4.88,4.88,0,0,1,.72-2.68,5.12,5.12,0,0,1,2-1.8,7.12,7.12,0,0,1,3-.71,11,11,0,0,1,3.32.46,12.4,12.4,0,0,1,2.51,1.12Z" transform="translate(-627.22 -47.36)"/><path class="cls-2" d="M1103.88,422.13h12.51v2.66h-9.77v5.51h8.72V433h-8.72v5.62h10.14v2.66h-12.88Z" transform="translate(-627.22 -47.36)"/><path class="cls-2" d="M1119.29,441.24l6.65-10.44,1.34,2.69-4.59,7.75Zm.27-19.11H1123l12.46,19.11H1132Zm7.83,7.64,4.53-7.64h3.32l-6.4,10Z" transform="translate(-627.22 -47.36)"/><path class="cls-2" d="M1137.69,422.13h12.73v2.66h-5.06v16.45h-2.77V424.79h-4.9Z" transform="translate(-627.22 -47.36)"/><path class="cls-2" d="M1159.62,422.13a8.54,8.54,0,0,1,3.56.7,5.55,5.55,0,0,1,2.44,2,5.77,5.77,0,0,1,.88,3.28,7.52,7.52,0,0,1-.34,2.24,5.77,5.77,0,0,1-1.1,2,5.21,5.21,0,0,1-2,1.44,7.74,7.74,0,0,1-3.07.54h-2.82v6.88h-2.74V422.13Zm.32,9.57a3.92,3.92,0,0,0,2.28-.57,3.11,3.11,0,0,0,1.12-1.37,4.17,4.17,0,0,0,.31-1.52,3.89,3.89,0,0,0-.18-1.12,3.71,3.71,0,0,0-.59-1.13,3,3,0,0,0-1.1-.87,3.84,3.84,0,0,0-1.68-.33h-2.93v6.91Zm3.21,1.63,5,7.91h-3.22l-5-7.86Z" transform="translate(-627.22 -47.36)"/><path class="cls-2" d="M1170,441.24l8.41-19.9h.16l8.41,19.9h-3.19l-6.12-15.58,2-1.29-6.91,16.87Zm5.09-7.17h6.85l.95,2.37h-8.62Z" transform="translate(-627.22 -47.36)"/><path class="cls-2" d="M955.45,723h2.74v19.11h-2.74Z" transform="translate(-627.22 -47.36)"/><path class="cls-2" d="M980.25,742.81,965.51,728.1l.82.27,0,13.78h-2.76V722.44h.1l14.55,14.71-.63-.16,0-14h2.74v19.77Z" transform="translate(-627.22 -47.36)"/><path class="cls-2" d="M984.36,723h12.73v2.67H992v16.44h-2.77V725.71h-4.9Z" transform="translate(-627.22 -47.36)"/><path class="cls-2" d="M1001.1,723h12.52v2.67h-9.78v5.5h8.72v2.67h-8.72v5.61H1014v2.66H1001.1Z" transform="translate(-627.22 -47.36)"/><path class="cls-2" d="M1035,742.81l-14.73-14.71.82.27,0,13.78h-2.77V722.44h.11L1033,737.15l-.64-.16-.05-14h2.74v19.77Z" transform="translate(-627.22 -47.36)"/><path class="cls-2" d="M1039.11,723h12.73v2.67h-5.06v16.44H1044V725.71h-4.9Z" transform="translate(-627.22 -47.36)"/><path class="cls-2" d="M1053.87,732.61a9.46,9.46,0,0,1,.75-3.74,9.89,9.89,0,0,1,2.09-3.12,10.1,10.1,0,0,1,3.11-2.14,9.53,9.53,0,0,1,7.55,0,10,10,0,0,1,3.14,2.14,9.81,9.81,0,0,1,2.12,3.12,9.31,9.31,0,0,1,.77,3.74,9.49,9.49,0,0,1-.77,3.8,9.84,9.84,0,0,1-5.26,5.2,9.88,9.88,0,0,1-7.55,0,10.07,10.07,0,0,1-3.11-2.07,9.43,9.43,0,0,1-2.09-3.09A9.81,9.81,0,0,1,1053.87,732.61Zm2.84,0a7.07,7.07,0,0,0,.92,3.56,7,7,0,0,0,2.51,2.55,6.65,6.65,0,0,0,3.53,1,6.5,6.5,0,0,0,3.48-1,7.05,7.05,0,0,0,2.48-2.55,7.13,7.13,0,0,0,.92-3.59,7,7,0,0,0-.94-3.6,7.08,7.08,0,0,0-2.5-2.57,6.94,6.94,0,0,0-7,0,7,7,0,0,0-2.48,2.58A7.29,7.29,0,0,0,1056.71,732.64Z" transform="translate(-627.22 -47.36)"/><path class="cls-2" d="M1087.55,726.66a12.26,12.26,0,0,0-2.16-.9,7.24,7.24,0,0,0-2.24-.37,3.77,3.77,0,0,0-2.37.67,2.22,2.22,0,0,0-.87,1.86,2,2,0,0,0,.58,1.42,5,5,0,0,0,1.5,1.06q.91.45,2,.84a13.59,13.59,0,0,1,2.29,1.07,5.28,5.28,0,0,1,1.82,1.73,5.77,5.77,0,0,1,0,5.64,5.4,5.4,0,0,1-2.18,2,7.36,7.36,0,0,1-3.38.72,10.17,10.17,0,0,1-3.5-.59,12.06,12.06,0,0,1-2.83-1.41l1.24-2.19a8.83,8.83,0,0,0,2.27,1.24,7,7,0,0,0,2.55.53,5.14,5.14,0,0,0,1.74-.3,3.4,3.4,0,0,0,1.41-1,2.53,2.53,0,0,0,.57-1.74,2.4,2.4,0,0,0-.5-1.52,4.13,4.13,0,0,0-1.31-1.08,12.35,12.35,0,0,0-1.72-.8q-.9-.33-1.83-.75a7.93,7.93,0,0,1-1.72-1,4.77,4.77,0,0,1-1.26-1.49,4.35,4.35,0,0,1-.49-2.15,4.92,4.92,0,0,1,.72-2.69,5.17,5.17,0,0,1,2-1.79,6.83,6.83,0,0,1,3-.71,10.65,10.65,0,0,1,3.32.46,11.87,11.87,0,0,1,2.51,1.12Z" transform="translate(-627.22 -47.36)"/><path class="cls-2" d="M839.46,578.09a32.63,32.63,0,0,1,7.67-9.88,38.32,38.32,0,0,1,9.25-6.09,30.45,30.45,0,0,1-7.43-7.51q-3-4.35-3-11.15a21.87,21.87,0,0,1,3.63-12.41,24.65,24.65,0,0,1,10-8.54,32,32,0,0,1,14.23-3.09,31.47,31.47,0,0,1,14.15,3.09,26.13,26.13,0,0,1,10,8.3,20,20,0,0,1,3.71,11.86q0,7.44-3,11.86a29.14,29.14,0,0,1-7.59,7.59,42.79,42.79,0,0,1,9.41,6.17,32.83,32.83,0,0,1,7.75,9.8,29.22,29.22,0,0,1,3.08,13.76,30.84,30.84,0,0,1-5,16.85,39.52,39.52,0,0,1-51.71,12.65,36.58,36.58,0,0,1-13.29-12.65,31.52,31.52,0,0,1-4.82-16.85A29.82,29.82,0,0,1,839.46,578.09Zm16.61,23.57a21.35,21.35,0,0,0,7.35,7.67,18.83,18.83,0,0,0,10.2,2.92,19.91,19.91,0,0,0,10.52-2.92,22.34,22.34,0,0,0,7.67-7.67,19.88,19.88,0,0,0,2.85-10.44A20.39,20.39,0,0,0,892,580.86a21,21,0,0,0-7.36-7.51,20.65,20.65,0,0,0-10.36-3A19,19,0,0,0,864,573a21.66,21.66,0,0,0-7.67,7.52,20,20,0,0,0-2.93,10.75A20.72,20.72,0,0,0,856.07,601.66Zm9.72-48.39a12.19,12.19,0,0,0,8.31,3.32,11.61,11.61,0,0,0,8.14-3.32,10.48,10.48,0,0,0,3.56-7.91,11.54,11.54,0,0,0-3.48-8.62,11.36,11.36,0,0,0-8.22-3.4,11.91,11.91,0,0,0-8.39,3.4,11.3,11.3,0,0,0-3.63,8.62A10.29,10.29,0,0,0,865.79,553.27Z" transform="translate(-627.22 -47.36)"/><path class="cls-2" d="M923.59,520.69h27.84V624.91H934.82V536.66H923.59Z" transform="translate(-627.22 -47.36)"/><path class="cls-3" d="M1029.39,506.93q-11.07,30.21-22.14,60.49T985,627.91H970.4q11.24-30.21,22.38-60.49T1015,506.93Z" transform="translate(-627.22 -47.36)"/><path class="cls-3" d="M1068,626.17a43.44,43.44,0,0,1-16.29-3.16,38.56,38.56,0,0,1-12.65-7.75l8.7-13a24,24,0,0,0,8.46,5.77,26.26,26.26,0,0,0,10.51,2.3,18.36,18.36,0,0,0,13.53-5.3q5.29-5.29,5.29-13.84,0-9-5-14.94t-14.79-5.94a32.63,32.63,0,0,0-10,1.51,51.92,51.92,0,0,0-9.88,4.5h-.16V520.69h50.13v16h-35.74v25l-2.21-3.48a44.23,44.23,0,0,1,5.77-1.27,40.8,40.8,0,0,1,6.09-.47q10.76,0,18.11,4.74a30.21,30.21,0,0,1,11.07,12.5,39.07,39.07,0,0,1,3.71,17.08,36.32,36.32,0,0,1-4.5,18,33.61,33.61,0,0,1-12.34,12.73A34,34,0,0,1,1068,626.17Z" transform="translate(-627.22 -47.36)"/><path class="cls-3" d="M1161.28,625.38a41.15,41.15,0,0,1-22.69-6.33,42.52,42.52,0,0,1-15.5-18.18q-5.61-11.86-5.61-28.47,0-18,5.45-29.73t15.34-17.48q9.88-5.76,23-5.61a40.27,40.27,0,0,1,22.7,6.17,42.62,42.62,0,0,1,15.49,18.18q5.63,11.87,5.62,28.47,0,17.08-5.62,28.94T1184,619.29A42.4,42.4,0,0,1,1161.28,625.38Zm-.15-16q9,0,14.94-4.75a28.28,28.28,0,0,0,8.86-13.2,59.19,59.19,0,0,0,2.92-19.38,57,57,0,0,0-2.92-19.13,27.36,27.36,0,0,0-8.86-12.81q-5.92-4.59-14.94-4.59t-14.71,4.67a28,28,0,0,0-8.78,13,64.21,64.21,0,0,0,0,38.35,28.46,28.46,0,0,0,8.78,13.12Q1152.27,609.42,1161.13,609.41Z" transform="translate(-627.22 -47.36)"/></svg>