<svg id="Capa_1" data-name="Capa 1" xmlns="http://www.w3.org/2000/svg" xmlns:xlink="http://www.w3.org/1999/xlink" viewBox="0 0 12.41 11.85"><defs><style>.cls-1{fill:none;}.cls-2{clip-path:url(#clip-path);}.cls-3{fill:#fff;}.cls-4{clip-path:url(#clip-path-2);}</style><clipPath id="clip-path" transform="translate(-1.77 -1.95)"><polygon class="cls-1" points="9.44 14 4.8 11.21 10.41 8.68 15.05 11.46 9.44 14"/></clipPath><clipPath id="clip-path-2" transform="translate(-1.77 -1.95)"><polygon class="cls-1" points="7.8 14 2.4 13.71 6.16 8.84 11.57 9.13 7.8 14"/></clipPath></defs><title>icono</title><g class="cls-2"><path d="M13.74,10.68l-1-.46v.1l.88.41a.61.61,0,0,1,.4.47.6.6,0,0,1-.37.49l-2.76,1.54-.11.06a2.25,2.25,0,0,1-.82.18,2.13,2.13,0,0,1-.94-.17L8.47,13l-.07.06.56.27a2.25,2.25,0,0,0,1,.18,2.33,2.33,0,0,0,.9-.19l.12-.06,2.75-1.54c.27-.15.42-.34.41-.55S14,10.81,13.74,10.68Z" transform="translate(-1.77 -1.95)"/></g><path class="cls-3" d="M9,9.59H9l.13,0Z" transform="translate(-1.77 -1.95)"/><polygon class="cls-3" points="7.25 7.65 7.32 7.72 7.25 7.65 7.25 7.65"/><path class="cls-3" d="M11.45,8.13h0Z" transform="translate(-1.77 -1.95)"/><path d="M12.32,9.26l0,0h0v-.1L12,8.23l0-.11L12,8V8h0v0H12l.05.2,0,.11.15.67.07.3Z" transform="translate(-1.77 -1.95)"/><path d="M11.87,7.18l-.1,0,0-.11h0l-.09,0h-.07l-.07,0a6.2,6.2,0,0,1-1.65.23A5.93,5.93,0,0,1,8.17,7.1l-.09,0H8l.25-1.41h.14a10.22,10.22,0,0,0,2.9,0h.09l-.22-1h.08L11,3.43l.22,1,.29,1.23v0l.14.58,0,.11,0,.12,0,.13.08.33,0,.13Z" transform="translate(-1.77 -1.95)"/><path d="M11.28,4.65H11.2l-.06-.24-.28-1.25,0-.14-.2-.88s-.36-.25-1.61,0l-.17.89,0,.14h0L8.51,4.66h0l-.19,1h0L8,7.06h0L7.91,8H8q.35.08.69.12l-.84,0h0l0,0h0V8L8,7V7l.25-1.28v0l.24-1.26.26-1.37.19-1H9c1.43-.32,1.7,0,1.73,0h0v0l.2.9,0,.15.06.25Z" transform="translate(-1.77 -1.95)"/><path d="M12,8a5.63,5.63,0,0,1-1.89.18c.46,0,.88-.06,1.25-.11h.14L11.89,8H12V8Z" transform="translate(-1.77 -1.95)"/><path d="M12.26,9.28l0,0h0c-.15,0-.29.11-.44.15l-.18,0-.11,0-.35.08-.09,0-.16,0-.15,0h0l0-.1h.06L11,9.53h0l.06,0h0l.22-.06.17,0,.11,0h0l.57-.15v0Z" transform="translate(-1.77 -1.95)"/><path d="M7.91,8.16v.05h0l0,0h0l-.07-.07V8.08h0l0,0V8l0,0h0l0,.06h0Z" transform="translate(-1.77 -1.95)"/><path d="M12.86,11.46l0,0a8.48,8.48,0,0,1-1.42.74l-.12,0a5.24,5.24,0,0,1-1.84.37,3.66,3.66,0,0,1-.57-.05l0-.09a4.69,4.69,0,0,0,2.24-.29l.12-.05a7.87,7.87,0,0,0,1.47-.75l-.4-1.71,0-.11-.08-.31v-.1L12,8.23l0-.11L12,8V8h0v0l-.19-.79.1,0,.18.77h0V8l0,.15,0,.1.23,1,.09.38,0,.1Z" transform="translate(-1.77 -1.95)"/><path d="M11,3.43l0-.22v0h-.09l.28,1.25.06.24h.08Z" transform="translate(-1.77 -1.95)"/><path d="M11.2,4.67h0a5.18,5.18,0,0,1-1.29.16A5.41,5.41,0,0,1,8.65,4.7l-.09,0H8.51l.27-1.45h.14a9.4,9.4,0,0,0,1.9,0h0l.29,1.25Z" transform="translate(-1.77 -1.95)"/><path d="M4.48,4.32l-.15-.16,0,0h0l.53.62L5,4.9l.34.38h0l0,0Zm-2.14.93h0l0,0,.45,1.41h0L2.57,6Z" transform="translate(-1.77 -1.95)"/><path d="M5.28,5.28l0,0,0,0h0a5.63,5.63,0,0,1-1.13.8,5.82,5.82,0,0,1-1.21.5l-.08,0L2.57,6l-.22-.72.06,0h0a11.26,11.26,0,0,0,1.77-1l0,0,0,0,0,0,.53.62L5,4.9Z" transform="translate(-1.77 -1.95)"/><path d="M7.17,7.32l-.06.07h0A5.37,5.37,0,0,1,3.52,9.05h-.1l0,.06v0h.1a5.53,5.53,0,0,0,2-.47,5.25,5.25,0,0,0,1.69-1.2l.06-.07ZM6.11,6.23l0,.07h0l.08,0Zm-3,1.46H3l0,.09h.09Z" transform="translate(-1.77 -1.95)"/><path d="M8.72,9.24h0a6.78,6.78,0,0,1-4.49,2.11H4.14l0,.1h.09a7.5,7.5,0,0,0,2.38-.59A6.41,6.41,0,0,0,8.79,9.32ZM3.81,10H3.72l0,.08h.1ZM7.92,8.23l0,0h0l-.06,0,0,0L7.7,8.06h0v0l.07.08,0,0h0l.13.05Z" transform="translate(-1.77 -1.95)"/><g class="cls-4"><path d="M10.67,9.3c-.09-.18-.32-.26-.63-.25L9,9.1l0,.08,1,0a.62.62,0,0,1,.58.22.6.6,0,0,1-.1.62L8.75,12.63a.61.61,0,0,1-.07.1,2.16,2.16,0,0,1-.64.54,2.1,2.1,0,0,1-.91.29L4,13.7a.58.58,0,0,1-.57-.23.6.6,0,0,1,.09-.61l.66-1a.22.22,0,0,0,0-.08L3.4,12.87a.65.65,0,0,0-.11.67.66.66,0,0,0,.64.25l3.14-.14a2.32,2.32,0,0,0,1-.32,2.46,2.46,0,0,0,.7-.6.44.44,0,0,0,.08-.11L10.57,10A.64.64,0,0,0,10.67,9.3Z" transform="translate(-1.77 -1.95)"/></g><path d="M9.26,9.72l-.1-.11h0l-.3-.36-.07.07L9,9.59l.06.08,0,0,.39.45a7.52,7.52,0,0,1-1.63,2l-.09.07A4.08,4.08,0,0,1,6.32,13a3,3,0,0,1-1.57,0L4.3,11.59l0-.1v0l0-.1L4,10.7v0l-.1-.33-.06-.19v-.05l0-.09-.16-.52h0v0l-.07-.22,0-.08h0l0-.08-.17-.56v0l-.12-.38-.09-.3h0l0-.08v0L3,7.21v0h0l-.15-.51L2.57,6l-.23-.72-.19-.62-.27-.87C2.86,2.94,3.24,3,3.29,3l.59.68L4,3.82l.28.31.53.62L5,4.9l.33.38.37.42v0L6,6.14l.07.08h0l0,.07h0l.37.42,0,0L7,7.24l.06.08.06.07.08.08v0l0,0h0L7.65,8l0,.06v0l.07.08,0,0h0l.12.05h0l0,0h0V8.16l0,0h0l-.06-.07,0,0h0L7.73,8,7.3,7.46l0,0h0l0,0-.08-.08,0-.06-.07-.07-.43-.5,0,0-.35-.41-.13-.15-.37-.43,0,0-.83-.95L4,3.62l-.61-.7h0s-.42-.15-1.53.8l0,0,.29.94L2.47,6l.39,1.23v0L3,7.7l0,.09v0l.2.67v0L3.4,9l0,.08,0,.06v0h0l0,.1.06.2v0l.18.58h0l0,.08.15.48,0,.06,0,.12.17.53,0,.1,0,.07,0,.1.46,1.48h0a3,3,0,0,0,1.64,0,4,4,0,0,0,.83-.33,4.44,4.44,0,0,0,.73-.49h0L8,12.23a7.5,7.5,0,0,0,1.63-2.05v0ZM3.52,9.05,3.35,8.5v0l-.12-.38L3.4,9l0,.08,0,.06v0h.09Z" transform="translate(-1.77 -1.95)"/><path d="M8.72,9.1H8.6l-.53-.61,0,0,0,0-.13-.15,0,0-.05-.06.12.05h0l0,0h0V8.16h0l.21.25.56.64Z" transform="translate(-1.77 -1.95)"/><path d="M8.86,9.25l-.07.07-.07-.08,0-.05,0,0h.13Z" transform="translate(-1.77 -1.95)"/><path d="M8.72,9.24h0a6.78,6.78,0,0,1-4.49,2.11L4,10.7v0l-.1-.33-.06-.19v-.05l0-.09A6.49,6.49,0,0,0,7.59,8.18l0,0,0,0,0,0v0l.07.08,0,0h0l.05.06,0,0L8,8.43l0,0,0,0,.53.61h0l.05.06,0,0Z" transform="translate(-1.77 -1.95)"/><path d="M7.11,7.39A5.37,5.37,0,0,1,3.52,9.05L3.35,8.5v0l-.12-.38-.09-.3h0l0-.08A5.1,5.1,0,0,0,6,6.29H6l.05,0,0,0,0,0,0,.07h0l.37.42,0,0L7,7.24l.06.08Z" transform="translate(-1.77 -1.95)"/><path d="M9,9.18H8.66l-.05-.06H9Z" transform="translate(-1.77 -1.95)"/><path d="M8.79,9.18h0Z" transform="translate(-1.77 -1.95)"/><path d="M12.24,9.18,12,8.23l0-.11L12,8V8a5.63,5.63,0,0,1-1.89.18,9.43,9.43,0,0,1-1.4,0l-.84,0h0l0,.06h0l0,0v.05h0l0,0h0l-.07-.07V8.08h0l-.12.27.93.78,1.47-.07.49.19.17.33L11,9.53h.14l.5-.13h0l.57-.15Zm-.81-1h0Z" transform="translate(-1.77 -1.95)"/><path d="M11.18,9.51l-.41.1v0L11,9.53h.14Z" transform="translate(-1.77 -1.95)"/><path d="M7.91,8.16v.05h0l0,0h0l-.07-.07V8.08h0l0,.06h0Z" transform="translate(-1.77 -1.95)"/><path d="M10.07,8.16a9.43,9.43,0,0,1-1.4,0Z" transform="translate(-1.77 -1.95)"/><path d="M11.45,8.13h0Z" transform="translate(-1.77 -1.95)"/><path d="M12.32,9.21h-.07V9.18L12,8.23l0-.11L12,8V8l0,0,.25,1Z" transform="translate(-1.77 -1.95)"/></svg>